<?xml version="1.0" encoding="UTF-8"?>
<svg xmlns="http://www.w3.org/2000/svg" xmlns:xlink="http://www.w3.org/1999/xlink" width="50px" height="50px" viewBox="0 0 50 50" version="1.1">
<defs>
<filter id="alpha" filterUnits="objectBoundingBox" x="0%" y="0%" width="100%" height="100%">
  <feColorMatrix type="matrix" in="SourceGraphic" values="0 0 0 0 1 0 0 0 0 1 0 0 0 0 1 0 0 0 1 0"/>
</filter>
<mask id="mask0">
  <g filter="url(#alpha)">
<rect x="0" y="0" width="50" height="50" style="fill:rgb(0%,0%,0%);fill-opacity:0.501961;stroke:none;"/>
  </g>
</mask>
<clipPath id="clip1">
  <rect x="0" y="0" width="50" height="50"/>
</clipPath>
<g id="surface5" clip-path="url(#clip1)">
<path style=" stroke:none;fill-rule:nonzero;fill:rgb(11.764706%,11.764706%,50.980395%);fill-opacity:1;" d="M 30.324219 32.390625 L 29.375 33.390625 C 29.375 33.390625 27.121094 35.765625 20.964844 29.28125 C 14.808594 22.800781 17.0625 20.425781 17.0625 20.425781 L 17.660156 19.796875 C 19.132812 18.25 19.273438 15.761719 17.988281 13.945312 L 15.359375 10.226562 C 13.769531 7.980469 10.699219 7.683594 8.878906 9.601562 L 5.609375 13.042969 C 4.703125 13.996094 4.097656 15.226562 4.171875 16.597656 C 4.359375 20.09375 5.855469 27.621094 14.199219 36.40625 C 23.046875 45.722656 31.347656 46.089844 34.742188 45.757812 C 35.816406 45.652344 36.75 45.070312 37.503906 44.277344 L 40.460938 41.164062 C 42.460938 39.058594 41.894531 35.453125 39.339844 33.984375 L 35.359375 31.691406 C 33.683594 30.726562 31.636719 31.011719 30.324219 32.390625 Z M 30.324219 32.390625 "/>
</g>
</defs>
<g id="surface1">
<use xlink:href="#surface5" mask="url(#mask0)"/>
<path style=" stroke:none;fill-rule:nonzero;fill:rgb(11.764706%,11.764706%,50.980395%);fill-opacity:1;" d="M 35.417969 25 C 41.167969 25 45.832031 20.335938 45.832031 14.582031 C 45.832031 8.832031 41.167969 4.167969 35.417969 4.167969 C 29.664062 4.167969 25 8.832031 25 14.582031 C 25 16.25 25.390625 17.824219 26.085938 19.222656 C 26.273438 19.59375 26.332031 20.015625 26.226562 20.417969 L 25.605469 22.734375 C 25.335938 23.742188 26.257812 24.664062 27.265625 24.394531 L 29.582031 23.773438 C 29.984375 23.667969 30.40625 23.726562 30.777344 23.914062 C 32.175781 24.609375 33.75 25 35.417969 25 Z M 35.417969 25 "/>
</g>
</svg>
