<svg width="24" height="25" viewBox="0 0 24 25" fill="none" xmlns="http://www.w3.org/2000/svg">
<path d="M12 20.2024C16.1421 20.2024 19.5 16.8445 19.5 12.7024C19.5 8.56026 16.1421 5.20239 12 5.20239C7.85786 5.20239 4.5 8.56026 4.5 12.7024C4.5 16.8445 7.85786 20.2024 12 20.2024Z" stroke="#51565A" stroke-width="1.5" stroke-linecap="round" stroke-linejoin="round"/>
<path d="M12 15.7024C13.6569 15.7024 15 14.3592 15 12.7024C15 11.0455 13.6569 9.70239 12 9.70239C10.3431 9.70239 9 11.0455 9 12.7024C9 14.3592 10.3431 15.7024 12 15.7024Z" stroke="#51565A" stroke-width="1.5" stroke-linecap="round" stroke-linejoin="round"/>
<path d="M12 4.70239V2.70239" stroke="#51565A" stroke-width="1.5" stroke-linecap="round" stroke-linejoin="round"/>
<path d="M4 12.7024H2" stroke="#51565A" stroke-width="1.5" stroke-linecap="round" stroke-linejoin="round"/>
<path d="M12 20.7024V22.7024" stroke="#51565A" stroke-width="1.5" stroke-linecap="round" stroke-linejoin="round"/>
<path d="M20 12.7024H22" stroke="#51565A" stroke-width="1.5" stroke-linecap="round" stroke-linejoin="round"/>
</svg>
