<svg width="20" height="20" viewBox="0 0 20 20" fill="none" xmlns="http://www.w3.org/2000/svg">
<path d="M12.8255 4.34175L14.0004 6.69174C14.1588 7.01674 14.5838 7.32507 14.9421 7.39174L17.0671 7.74174C18.4255 7.96674 18.7421 8.95007 17.7671 9.93341L16.1088 11.5917C15.8338 11.8667 15.6755 12.4084 15.7671 12.8001L16.2421 14.8501C16.6171 16.4667 15.7504 17.1001 14.3254 16.2501L12.3338 15.0667C11.9754 14.8501 11.3754 14.8501 11.0171 15.0667L9.02544 16.2501C7.60044 17.0917 6.73378 16.4667 7.10878 14.8501L7.58379 12.8001C7.67545 12.4167 7.51712 11.8751 7.24212 11.5917L5.58379 9.93341C4.60879 8.95841 4.92545 7.97507 6.28379 7.74174L8.40878 7.39174C8.76711 7.3334 9.19211 7.01674 9.35045 6.69174L10.5255 4.34175C11.1505 3.06675 12.1838 3.06675 12.8255 4.34175Z" stroke="#FFAC33" stroke-width="1.5" stroke-linecap="round" stroke-linejoin="round"/>
<path d="M6.66699 4.16675H1.66699" stroke="#FFAC33" stroke-width="1.5" stroke-linecap="round" stroke-linejoin="round"/>
<path d="M4.16699 15.8333H1.66699" stroke="#FFAC33" stroke-width="1.5" stroke-linecap="round" stroke-linejoin="round"/>
<path d="M2.50033 10H1.66699" stroke="#FFAC33" stroke-width="1.5" stroke-linecap="round" stroke-linejoin="round"/>
</svg>
