<svg width="20" height="20" viewBox="0 0 20 20" fill="none" xmlns="http://www.w3.org/2000/svg">
<path d="M18.7594 8.84501L17.5127 7.39668C17.2744 7.12168 17.0819 6.60835 17.0819 6.24168V4.68335C17.0819 3.71168 16.2844 2.91418 15.3127 2.91418H13.7544C13.3969 2.91418 12.8744 2.72168 12.5994 2.48335L11.1511 1.23668C10.5186 0.695846 9.48273 0.695846 8.84107 1.23668L7.4019 2.49251C7.1269 2.72168 6.6044 2.91418 6.2469 2.91418H4.66107C3.6894 2.91418 2.8919 3.71168 2.8919 4.68335V6.25085C2.8919 6.60835 2.6994 7.12168 2.47023 7.39668L1.23273 8.85418C0.701068 9.48668 0.701068 10.5133 1.23273 11.1458L2.47023 12.6033C2.6994 12.8783 2.8919 13.3917 2.8919 13.7492V15.3167C2.8919 16.2883 3.6894 17.0858 4.66107 17.0858H6.2469C6.6044 17.0858 7.1269 17.2783 7.4019 17.5167L8.85023 18.7633C9.48273 19.3042 10.5186 19.3042 11.1602 18.7633L12.6086 17.5167C12.8836 17.2783 13.3969 17.0858 13.7636 17.0858H15.3219C16.2936 17.0858 17.0911 16.2883 17.0911 15.3167V13.7583C17.0911 13.4008 17.2836 12.8783 17.5219 12.6033L18.7686 11.155C19.3002 10.5225 19.3002 9.47751 18.7594 8.84501ZM13.8094 8.26751L9.3819 12.695C9.25357 12.8233 9.0794 12.8967 8.89607 12.8967C8.71273 12.8967 8.53857 12.8233 8.41023 12.695L6.1919 10.4767C5.92607 10.2108 5.92607 9.77085 6.1919 9.50501C6.45773 9.23918 6.89773 9.23918 7.16357 9.50501L8.89607 11.2375L12.8377 7.29585C13.1036 7.03001 13.5436 7.03001 13.8094 7.29585C14.0752 7.56168 14.0752 8.00168 13.8094 8.26751Z" fill="#1CA345"/>
</svg>
