<svg width="68" height="68" viewBox="0 0 68 68" fill="none" xmlns="http://www.w3.org/2000/svg">
<circle cx="34" cy="34" r="33.5" stroke="white"/>
<g clip-path="url(#clip0_26_240)">
<path d="M30.5771 21.6406C29.2566 21.2188 27.4815 21.219 26.16 21.6406C25.1544 21.9617 24.4053 22.6143 23.9334 23.5801C23.5752 24.3133 23.3706 25.2402 23.3079 26.4141C23.2868 26.8094 23.4594 27.192 23.7698 27.4374C24.0809 27.6835 24.4941 27.7637 24.8752 27.6519C26.1104 27.2894 27.3977 27.124 28.7009 27.1596C29.7733 27.1891 30.8351 27.3584 31.8569 27.6623C31.9719 27.6966 32.0898 27.7133 32.207 27.7133C32.4794 27.7133 32.7478 27.6229 32.9663 27.4509C33.2774 27.2059 33.4508 26.8234 33.43 26.4278C33.3788 25.4527 33.2232 22.4858 30.5771 21.6406ZM32.2405 26.5291C32.2189 26.5459 32.199 26.54 32.1914 26.5379C31.0715 26.2046 29.908 26.0192 28.7333 25.9869C28.6062 25.9834 28.4793 25.9816 28.3525 25.9816C27.0564 25.9816 25.7773 26.1644 24.5448 26.5263C24.5376 26.5284 24.5185 26.5339 24.4977 26.5174C24.4781 26.5019 24.4791 26.4842 24.4794 26.4766C24.5948 24.3182 25.2232 23.1715 26.5168 22.7584C27.6076 22.4103 29.1305 22.4102 30.2202 22.7583C31.5162 23.1721 32.1448 24.3228 32.2584 26.4892C32.2587 26.4973 32.2596 26.514 32.2405 26.5291Z" fill="white"/>
<path d="M52.5859 40.0248H51.705V37.9393C51.705 37.1573 51.0689 36.5212 50.2869 36.5212H48.5852V36.0395C48.5852 35.2575 47.9491 34.6213 47.1671 34.6213H45.7103C44.9283 34.6213 44.2921 35.2576 44.2921 36.0395V40.1427H42.7089C42.6988 39.1989 42.5978 38.2573 42.406 37.3416C42.3396 37.0245 42.0281 36.8213 41.7116 36.8877C41.3945 36.9541 41.1913 37.265 41.2577 37.582C41.433 38.419 41.5257 39.2797 41.5357 40.1427H31.6235V36.0395C31.6235 35.2576 30.9874 34.6214 30.2054 34.6214H28.7486C27.9667 34.6214 27.3305 35.2577 27.3305 36.0395V36.5212H25.6288C24.8468 36.5212 24.2107 37.1574 24.2107 37.9394V40.0249H23.3299C22.5501 40.0249 21.9157 40.6593 21.9157 41.4391V43.2266C21.9157 44.0063 22.5501 44.6407 23.3299 44.6407H24.2107V46.7262C24.2107 47.5082 24.8469 48.1444 25.6288 48.1444H27.3305V48.8712H20.1702C18.9032 48.8712 17.717 48.21 17.0744 47.1455C15.7916 45.0205 15.1348 42.5771 15.175 40.0796C15.2357 36.3164 16.8971 32.755 19.7331 30.3087C20.2321 29.8783 20.509 29.2228 20.474 28.5552C20.4445 27.9922 20.4224 27.4484 20.414 27.2437L20.4103 27.1528C20.3395 25.6885 20.4803 24.445 20.8406 23.3511C21.1151 22.5179 21.6145 21.7551 22.2846 21.1449C22.6144 20.8447 22.9903 20.5753 23.4021 20.3444C24.7107 19.6103 26.3125 19.1925 28.0342 19.1362C29.6756 19.0824 31.2038 19.3323 32.5755 19.8787C33.6838 20.3202 34.3864 20.8295 35.0006 21.6368C35.6664 22.512 36.0893 23.6488 36.2571 25.0103C36.2758 25.203 36.3442 27.2175 36.3071 28.7C36.2911 29.3448 36.5642 29.9629 37.0563 30.3956C38.5263 31.6884 39.7091 33.318 40.4767 35.1084C40.6044 35.4062 40.949 35.5441 41.2471 35.4165C41.5448 35.2887 41.6827 34.9439 41.5549 34.6461C40.7189 32.6963 39.4313 30.9219 37.831 29.5145C37.6005 29.3119 37.4726 29.0257 37.4799 28.7292C37.517 27.2455 37.4515 25.113 37.4219 24.8721C37.228 23.2966 36.7274 21.969 35.9341 20.9264C35.1898 19.9482 34.3153 19.3088 33.0095 18.7887C31.4868 18.1822 29.8003 17.9042 27.9957 17.9635C26.0868 18.026 24.2999 18.4955 22.8278 19.3212C22.3387 19.5956 21.8901 19.9173 21.4946 20.2774C20.6753 21.0234 20.0638 21.9593 19.7261 22.9841C19.3199 24.2169 19.1603 25.5991 19.2381 27.2095L19.2416 27.2914C19.2499 27.498 19.2723 28.0469 19.3021 28.6167C19.3183 28.9248 19.1928 29.2252 18.9665 29.4204C15.8776 32.0848 14.068 35.9631 14.0019 40.0606C13.9581 42.7786 14.6732 45.4381 16.0699 47.7519C16.9236 49.166 18.4947 50.0445 20.1701 50.0445H36.5683C38.199 50.0445 39.7371 49.1934 40.5821 47.8232C41.2082 46.8082 41.7002 45.7232 42.0535 44.5945H44.2921V48.6261C44.2921 49.408 44.9283 50.0442 45.7103 50.0442H47.1671C47.9491 50.0442 48.5852 49.408 48.5852 48.6261V48.1445H50.2869C51.0689 48.1445 51.705 47.5083 51.705 46.7263V44.6408H52.5859C53.3657 44.6408 54 44.0064 54 43.2266V41.4391C54 40.6592 53.3657 40.0248 52.5859 40.0248ZM28.5037 36.0395C28.5037 35.9044 28.6135 35.7945 28.7486 35.7945H30.2054C30.3405 35.7945 30.4503 35.9044 30.4503 36.0395V40.7293V44.0078V48.8709H28.5037V47.5577V37.1078V36.0395ZM23.3298 43.4674C23.197 43.4674 23.0889 43.3594 23.0889 43.2266V41.4391C23.0889 41.3062 23.1969 41.1982 23.3298 41.1982H24.2106V43.4675L23.3298 43.4674ZM25.6288 46.9711C25.4938 46.9711 25.3839 46.8612 25.3839 46.7262V37.9393C25.3839 37.8042 25.4938 37.6944 25.6288 37.6944H27.3305V46.9711H25.6288ZM44.2921 43.4212H36.92C36.596 43.4212 36.3334 43.6838 36.3334 44.0079C36.3334 44.3319 36.596 44.5945 36.92 44.5945H40.8171C40.5042 45.5047 40.0928 46.3815 39.5835 47.2073C38.9504 48.2337 37.795 48.8712 36.5682 48.8712H31.6235V44.5945H34.2215C34.5455 44.5945 34.8082 44.332 34.8082 44.0079C34.8082 43.6839 34.5456 43.4212 34.2215 43.4212H31.6235V41.3159H44.2921V43.4212ZM47.4119 37.1078V47.5577V48.626C47.4119 48.7611 47.3021 48.8709 47.1671 48.8709H45.7102C45.5751 48.8709 45.4653 48.7611 45.4653 48.626V36.0395C45.4653 35.9044 45.5751 35.7945 45.7102 35.7945H47.1671C47.3021 35.7945 47.4119 35.9044 47.4119 36.0395V37.1078ZM50.5318 46.7262C50.5318 46.8613 50.422 46.9712 50.2869 46.9712H48.5852V37.6945H50.2869C50.422 37.6945 50.5318 37.8043 50.5318 37.9394V46.7262ZM52.8268 43.2266C52.8268 43.3594 52.7188 43.4674 52.5859 43.4674H51.705V41.1981H52.5859C52.7187 41.1981 52.8268 41.3062 52.8268 41.439V43.2266Z" fill="white"/>
</g>
<defs>
<clipPath id="clip0_26_240">
<rect width="40" height="40" fill="white" transform="translate(14 14)"/>
</clipPath>
</defs>
</svg>
