<svg width="69" height="68" viewBox="0 0 69 68" fill="none" xmlns="http://www.w3.org/2000/svg">
<circle cx="34.5" cy="34" r="33.5" stroke="white"/>
<g clip-path="url(#clip0_26_176)">
<path d="M21.6619 23.8615H24.1157C24.4232 23.8615 24.6723 23.6123 24.6723 23.3049C24.6723 22.9975 24.4232 22.7482 24.1157 22.7482H21.6619C20.7526 22.7482 19.9845 22.0282 19.9496 21.1433C19.9485 21.1155 19.948 21.0879 19.948 21.0603C19.948 19.9661 20.8383 19.0758 21.9325 19.0758C22.5349 19.0758 23.098 19.3453 23.4772 19.8152C23.6379 20.0142 23.9132 20.0781 24.1453 19.9701C24.3592 19.8706 24.5877 19.8201 24.8245 19.8201C25.396 19.8201 25.9302 20.1277 26.2185 20.6228C26.2931 20.7509 26.4158 20.844 26.5593 20.8813C26.7029 20.9187 26.8553 20.8972 26.9829 20.8217C27.1661 20.7134 27.3759 20.6561 27.5896 20.6561C28.1685 20.6561 28.6627 21.069 28.7647 21.6379C28.8123 21.9032 29.0431 22.0964 29.3126 22.0964H31.1139C31.3033 22.0964 31.4659 22.2427 31.469 22.4159C31.4707 22.5043 31.4376 22.5877 31.3758 22.6506C31.314 22.7136 31.2314 22.7482 31.1432 22.7482H26.3421C26.0346 22.7482 25.7855 22.9975 25.7855 23.3049C25.7855 23.6123 26.0346 23.8615 26.3421 23.8615H31.1432C31.5326 23.8615 31.8973 23.7085 32.1701 23.4306C32.4429 23.1527 32.5892 22.7852 32.5822 22.3956C32.568 21.6167 31.9094 20.9831 31.1139 20.9831H29.7285C29.3826 20.1264 28.5458 19.5428 27.5896 19.5428C27.3502 19.5428 27.1132 19.58 26.8873 19.6523C26.3744 19.0598 25.6209 18.7069 24.8245 18.7069C24.5648 18.7069 24.3108 18.7429 24.0656 18.8141C23.4929 18.2688 22.7351 17.9625 21.9325 17.9625C20.2244 17.9625 18.8347 19.3522 18.8347 21.0603C18.8347 21.1023 18.8356 21.1445 18.8372 21.187C18.8962 22.6868 20.137 23.8615 21.6619 23.8615Z" fill="white"/>
<path d="M52.9434 48.9242H52.581C53.1567 48.2445 53.4285 47.1882 53.4285 45.6609C53.4285 43.7538 53.0151 41.3602 52.3494 39.4142C51.7703 37.7212 50.7694 35.7029 49.2899 35.7029C48.546 35.7029 47.8559 36.2086 47.2327 37.2073C46.6927 36.3444 46.0108 35.7029 45.1767 35.7029C44.2798 35.7029 43.4632 36.4347 42.7469 37.879C42.6007 37.8267 42.444 37.7967 42.2801 37.7967H36.7324C36.4249 37.7967 36.1757 38.0459 36.1757 38.3534C36.1757 38.6608 36.4249 38.91 36.7324 38.91H42.2801C42.4333 38.91 42.558 39.0347 42.558 39.1879V39.8174C42.558 39.9707 42.4333 40.0953 42.2801 40.0953H26.7199C26.5667 40.0953 26.442 39.9707 26.442 39.8174V39.1879C26.442 39.0347 26.5667 38.91 26.7199 38.91H34.5058C34.8133 38.91 35.0624 38.6608 35.0624 38.3534C35.0624 38.0459 34.8133 37.7967 34.5058 37.7967H29.89C30.316 36.8457 30.54 35.8053 30.54 34.7565C30.54 30.6602 27.2074 27.3276 23.1111 27.3276C19.0149 27.3276 15.6822 30.6602 15.6822 34.7565C15.6822 38.6393 18.6766 41.8354 22.4774 42.1581V45.3285C22.3601 45.3128 22.2412 45.3045 22.1213 45.3045C21.91 45.3045 21.7022 45.3289 21.5 45.3775C20.852 44.5017 19.7927 43.986 18.6875 44.0375C16.9966 44.116 15.617 45.5024 15.5471 47.1942C15.5217 47.807 15.6706 48.408 15.9616 48.9329C15.6995 48.9781 15.5 49.2059 15.5 49.4808C15.5 49.7882 15.7492 50.0375 16.0566 50.0375H17.138H52.9434C53.2508 50.0375 53.5 49.7882 53.5 49.4808C53.5 49.1734 53.2508 48.9242 52.9434 48.9242ZM26.7461 48.1123C26.7349 47.9501 26.7054 47.7893 26.6606 47.6328H28.4381V48.9242H26.6623C26.7361 48.6646 26.7652 48.3909 26.7461 48.1123ZM38.8279 43.5074V44.3275H30.4171V43.5074H38.8279ZM41.1865 43.5074C41.1511 43.7854 41.1216 44.0595 41.0988 44.3275H39.9411V43.5074H41.1865ZM43.5165 45.4408C43.587 45.4408 43.6445 45.4982 43.6445 45.5688V46.3914C43.6445 46.462 43.587 46.5194 43.5165 46.5194H25.4835C25.413 46.5194 25.3554 46.462 25.3554 46.3914V45.5688C25.3554 45.4982 25.4129 45.4408 25.4835 45.4408H43.5165ZM29.5514 47.6328H39.6935V48.9242H29.5514V47.6328ZM40.8069 47.6328H41.2524C41.3991 48.1864 41.6181 48.6069 41.8879 48.9242H40.8068L40.8069 47.6328ZM47.8638 38.3608C48.346 37.3937 48.8791 36.8162 49.2899 36.8162C49.7486 36.8162 50.5492 37.591 51.2961 39.7746C51.9152 41.5846 52.3152 43.8952 52.3152 45.6609C52.3152 48.7992 51.1765 48.7992 49.2899 48.7992C49.0579 48.7992 48.8141 48.7988 48.5732 48.7894C49.0763 48.1077 49.3154 47.0913 49.3154 45.6609C49.3154 43.7538 48.9019 41.3602 48.2363 39.4142C48.1223 39.0811 47.9917 38.7354 47.8447 38.3948C47.8512 38.3837 47.8579 38.3726 47.8638 38.3608ZM45.1767 36.8163C45.6354 36.8163 46.436 37.5911 47.1829 39.7746C47.802 41.5847 48.202 43.8953 48.202 45.661C48.202 48.7993 47.0633 48.7993 45.1767 48.7993C43.68 48.7993 42.8253 48.7426 42.4169 47.6328H43.5164C44.2009 47.6328 44.7577 47.076 44.7577 46.3915V45.569C44.7577 44.8845 44.2008 44.3277 43.5164 44.3277H42.2166C42.2409 44.0594 42.2719 43.785 42.3094 43.5061C43.0628 43.4902 43.6712 42.8735 43.6712 42.1163V41.4869C43.6712 41.1736 43.5658 40.8851 43.3904 40.6523C43.5659 40.4195 43.6712 40.131 43.6712 39.8177V39.1882C43.6712 39.0173 43.6387 38.8541 43.5821 38.7027C43.5962 38.6807 43.6095 38.6578 43.6207 38.6333C44.1412 37.4954 44.7229 36.8163 45.1767 36.8163ZM42.2801 41.2087C42.4333 41.2087 42.558 41.3334 42.558 41.4866V42.1161C42.558 42.2694 42.4333 42.394 42.2801 42.394H26.7199C26.5667 42.394 26.442 42.2694 26.442 42.1161V41.4866C26.442 41.3334 26.5667 41.2087 26.7199 41.2087H42.2801ZM16.7956 34.7565C16.7956 31.2741 19.6288 28.4409 23.1112 28.4409C26.5936 28.4409 29.4268 31.2741 29.4268 34.7565C29.4268 35.8018 29.1663 36.8372 28.6735 37.7507C28.6653 37.7658 28.6582 37.7812 28.6516 37.7967H26.72C25.9529 37.7967 25.3288 38.4208 25.3288 39.1879V39.8174C25.3288 40.1008 25.4144 40.3645 25.5606 40.5846C25.5397 40.5904 25.5189 40.5971 25.4984 40.6054C24.8882 40.8547 24.2482 41.0033 23.5908 41.0524V36.6669L25.514 34.7436C25.7314 34.5263 25.7314 34.1738 25.514 33.9565C25.2965 33.7391 24.9441 33.7391 24.7267 33.9565L23.5908 35.0924V33.6396C23.5908 33.3322 23.3417 33.0829 23.0342 33.0829C22.7267 33.0829 22.4775 33.3322 22.4775 33.6396V36.9862L21.4067 35.9156C21.1892 35.6982 20.8368 35.6981 20.6195 35.9156C20.4021 36.1329 20.4021 36.4854 20.6195 36.7028L22.4775 38.5609V41.0404C19.2915 40.7214 16.7956 38.0251 16.7956 34.7565ZM23.5907 42.1698C24.1839 42.1321 24.7652 42.0245 25.3287 41.8482V42.1161C25.3287 42.8832 25.9528 43.5073 26.7199 43.5073H29.3038V44.3274H25.4835C24.7989 44.3274 24.2421 44.8843 24.2421 45.5688V45.9273C24.1233 45.9349 24.0056 45.9506 23.8896 45.9763C23.7951 45.8923 23.6951 45.8158 23.5907 45.7467L23.5907 42.1698ZM17.3446 48.9242C16.8806 48.4888 16.6327 47.8847 16.6594 47.2402C16.7058 46.1198 17.6194 45.2016 18.7392 45.1498C19.5943 45.1106 20.3716 45.5532 20.7734 46.3056C20.911 46.5632 21.2241 46.6707 21.491 46.5518C21.6905 46.4629 21.9026 46.4178 22.1214 46.4178C22.5776 46.4178 23.0089 46.6179 23.3047 46.9667C23.4594 47.1493 23.7136 47.2125 23.9358 47.1236C24.0923 47.0611 24.2563 47.032 24.4247 47.036C24.6383 47.3857 25.0191 47.6217 25.4559 47.6314C25.5598 47.8005 25.6221 47.993 25.6355 48.1885C25.6535 48.4515 25.5909 48.7059 25.4572 48.9242H17.3446Z" fill="white"/>
<path d="M36.2088 30.8329H41.7762C42.0837 30.8329 42.3329 30.5836 42.3329 30.2762C42.3329 29.9688 42.0837 29.7196 41.7762 29.7196H36.2088C35.8405 29.7196 35.539 29.4298 35.5365 29.0735C35.5365 29.0719 35.5365 29.0653 35.5365 29.0636C35.5365 28.2973 36.1603 27.6608 36.9273 27.645C37.1953 27.6395 37.4213 27.4437 37.465 27.1791C37.6919 25.804 38.8696 24.8059 40.2654 24.8059C41.6682 24.8059 42.847 25.8095 43.0682 27.1924C43.1158 27.4892 43.3909 27.6945 43.6886 27.6565C43.7608 27.6473 43.8188 27.6429 43.8714 27.6429C44.3736 27.6429 44.8436 27.9129 45.098 28.3474C45.1979 28.5179 45.3807 28.6227 45.5783 28.6227H47.1046C47.4069 28.6227 47.653 28.8687 47.653 29.1711C47.653 29.4736 47.407 29.7196 47.1046 29.7196H44.0027C43.6952 29.7196 43.446 29.9688 43.446 30.2762C43.446 30.5836 43.6952 30.8329 44.0027 30.8329H47.1046C48.0208 30.8329 48.7662 30.0874 48.7662 29.1711C48.7662 28.2549 48.0208 27.5094 47.1046 27.5094H45.8719C45.4341 26.9477 44.7735 26.5909 44.0606 26.5369C43.5779 24.8627 42.0521 23.6925 40.2654 23.6925C38.4661 23.6925 36.927 24.8842 36.4581 26.5812C35.3022 26.8159 34.4231 27.8481 34.4231 29.0636L34.4232 29.0811C34.4299 30.047 35.231 30.8329 36.2088 30.8329Z" fill="white"/>
</g>
<defs>
<clipPath id="clip0_26_176">
<rect width="38" height="38" fill="white" transform="translate(15.5 15)"/>
</clipPath>
</defs>
</svg>
