<svg width="68" height="68" viewBox="0 0 68 68" fill="none" xmlns="http://www.w3.org/2000/svg">
<circle cx="34" cy="34" r="33.5" stroke="white"/>
<path d="M30.066 33.2429C30.4158 33.2429 30.6994 32.9593 30.6994 32.6095C30.6994 32.2597 30.4158 31.9761 30.066 31.9761C29.7162 31.9761 29.4326 32.2597 29.4326 32.6095C29.4326 32.9593 29.7162 33.2429 30.066 33.2429Z" fill="white"/>
<path d="M26.8594 35.6082C26.9933 35.285 26.8399 34.9143 26.5167 34.7803C26.1935 34.6464 25.8229 34.7998 25.6889 35.123C25.5549 35.4462 25.7083 35.8169 26.0315 35.9508C26.3548 36.0848 26.7254 35.9314 26.8594 35.6082Z" fill="white"/>
<path d="M33.9082 35.967C34.2486 35.8866 34.4593 35.5454 34.3789 35.2051C34.2984 34.8647 33.9573 34.654 33.6169 34.7344C33.2765 34.8149 33.0658 35.156 33.1463 35.4964C33.2267 35.8368 33.5679 36.0475 33.9082 35.967Z" fill="white"/>
<path d="M26.8603 42.9125C26.9943 42.5893 26.8409 42.2186 26.5177 42.0847C26.1945 41.9507 25.8238 42.1041 25.6899 42.4273C25.5559 42.7505 25.7093 43.1212 26.0325 43.2552C26.3557 43.3891 26.7264 43.2357 26.8603 42.9125Z" fill="white"/>
<path d="M33.9101 43.2672C34.2504 43.1868 34.4611 42.8456 34.3807 42.5053C34.3002 42.1649 33.9591 41.9542 33.6187 42.0347C33.2784 42.1151 33.0677 42.4563 33.1481 42.7966C33.2286 43.137 33.5697 43.3477 33.9101 43.2672Z" fill="white"/>
<path d="M38.3376 26.173C41.0551 26.173 43.2658 23.9623 43.2658 21.2448C43.2658 18.5274 41.0551 16.3167 38.3376 16.3167C35.6202 16.3167 33.4094 18.5274 33.4094 21.2448C33.4094 23.9623 35.6202 26.173 38.3376 26.173ZM38.3376 17.3957C40.4601 17.3957 42.1868 19.1224 42.1868 21.2448C42.1868 23.3673 40.4601 25.094 38.3376 25.094C36.2152 25.094 34.4885 23.3673 34.4885 21.2448C34.4885 19.1224 36.2152 17.3957 38.3376 17.3957Z" fill="white"/>
<path d="M39.4927 23.1629C39.7034 23.3736 40.045 23.3736 40.2557 23.1629C40.4664 22.9522 40.4664 22.6106 40.2557 22.3999L38.8772 21.0214V19.7162C38.8772 19.4182 38.6356 19.1767 38.3377 19.1767C38.0398 19.1767 37.7982 19.4183 37.7982 19.7162V21.0363C37.7982 21.315 37.9067 21.577 38.1038 21.7739L39.4927 23.1629Z" fill="white"/>
<path d="M52.8871 45.0266C52.7746 44.4771 52.2853 44.0782 51.7238 44.0782H50.9921C51.3009 43.4507 51.5785 42.6927 51.8324 41.7853C51.9127 41.4983 51.7451 41.2006 51.4581 41.1203C51.1711 41.0402 50.8734 41.2076 50.7932 41.4945C50.4895 42.5802 50.1439 43.4472 49.7646 44.0782H46.5378C46.1892 43.0007 46.2605 41.2367 46.7509 38.825C47.4961 35.1606 50.0207 30.1542 51.3346 27.7098C51.571 30.2775 51.9185 35.4445 51.3265 39.1062C51.2789 39.4004 51.4788 39.6774 51.773 39.7249C52.0671 39.7725 52.3441 39.5726 52.3917 39.2784C53.0535 35.1857 52.5845 29.34 52.3521 27.0165C52.3127 26.6221 52.0251 26.304 51.6366 26.2251C51.2482 26.1459 50.8592 26.3265 50.6687 26.6742C50.4579 27.0593 50.196 27.5461 49.9027 28.1087C48.8995 24.9747 47.4864 21.8194 46.6713 20.0951C46.502 19.7367 46.1246 19.5334 45.7319 19.5892C45.3393 19.6451 45.0334 19.9455 44.9707 20.3369C44.6026 22.6313 43.8411 28.0849 44.1665 32.1618C43.8924 31.8242 43.6482 31.5311 43.4484 31.2951C43.206 31.0088 42.8206 30.9036 42.4663 31.0267C42.1121 31.1501 41.8755 31.472 41.8634 31.847C41.8355 32.7099 41.8155 33.9931 41.8637 35.4344C41.2295 35.4064 40.5454 35.6972 39.9689 35.977C40.4905 34.7162 40.7637 33.3556 40.7637 31.989V31.1729C40.7637 29.4538 39.3652 28.0553 37.6462 28.0553H34.973C34.5579 28.0553 34.1739 27.8698 33.9194 27.5462C32.9705 26.3397 31.5475 25.6478 30.015 25.6478C28.4826 25.6478 27.0595 26.3397 26.1106 27.5462C25.8561 27.8698 25.4721 28.0553 25.057 28.0553C24.7254 28.0152 24.4079 28.2481 24.4107 28.5948C24.4079 28.9416 24.7254 29.1745 25.057 29.1343C25.8052 29.1343 26.4983 28.7985 26.9587 28.2132C27.7017 27.2686 28.8156 26.7268 30.0149 26.7268C31.2143 26.7268 32.3283 27.2685 33.0712 28.2132C33.5316 28.7985 34.2247 29.1343 34.9728 29.1343H37.646C38.7701 29.1343 39.6845 30.0487 39.6845 31.1728V31.9889C39.6845 33.5194 39.3031 35.0418 38.5816 36.3915L36.7659 39.7878C36.5179 39.7478 36.2639 39.7262 36.0048 39.7262H24.0253C23.7662 39.7262 23.5122 39.7478 23.2642 39.7878L21.4485 36.3915C20.727 35.0418 20.3456 33.5194 20.3456 31.9889V31.1728C20.3456 30.0487 21.26 29.1343 22.3841 29.1343C22.682 29.1343 22.9236 28.8927 22.9236 28.5948C22.9236 28.2969 22.682 28.0553 22.3841 28.0553C20.665 28.0553 19.2665 29.4538 19.2665 31.1729V31.989C19.2665 33.3556 19.5398 34.7162 20.0614 35.977L19.4893 35.7188C18.0552 35.0716 16.3867 35.5561 15.5223 36.8709C14.6392 38.2144 14.8991 40.0102 16.1269 41.0481L19.3234 43.75C19.286 43.9897 19.2664 44.2351 19.2664 44.485C19.2664 45.5015 19.9628 46.3582 20.9035 46.6035V50.2832C20.9035 50.9028 21.4076 51.4069 22.0272 51.4069C22.5053 51.4069 22.9318 51.1035 23.0887 50.652L24.4709 46.6742H30.9423C31.2403 46.6742 31.4818 46.4326 31.4818 46.1347C31.4818 45.8368 31.2402 45.5952 30.9423 45.5952H21.4555C20.8435 45.5952 20.3456 45.0973 20.3456 44.4852C20.3456 42.4562 21.9963 40.8054 24.0253 40.8054H36.0052C38.0342 40.8054 39.685 42.4561 39.685 44.4852C39.685 45.0973 39.187 45.5952 38.575 45.5952H33.5894C33.2914 45.5952 33.0499 45.8368 33.0499 46.1347C33.0499 46.4326 33.2915 46.6742 33.5894 46.6742H35.5596L36.9418 50.652C37.0987 51.1036 37.5253 51.407 38.0033 51.407C38.623 51.407 39.127 50.9029 39.127 50.2832V46.6036C40.0677 46.3583 40.7641 45.5016 40.7641 44.4851C40.7641 44.2352 40.7445 43.9898 40.7072 43.7501L42.7514 42.0222C42.9707 42.7324 43.2726 43.4872 43.5531 44.0783H43.1749C42.6133 44.0783 42.124 44.4773 42.0114 45.0271C41.9122 45.5121 41.8783 46.0107 41.9106 46.5091C41.9992 47.8699 42.5905 49.1489 43.5756 50.1105C45.6311 52.1912 49.2225 52.2118 51.2926 50.1473C52.3935 49.0905 53 47.6681 53 46.1422C53 45.7675 52.962 45.3922 52.8871 45.0266ZM22.0694 50.2978C22.0632 50.3157 22.0463 50.3278 22.0273 50.3278C22.0026 50.3278 21.9826 50.3077 21.9826 50.2831V46.6741H23.3286L22.0694 50.2978ZM19.6505 42.6135L16.8235 40.224C16.0121 39.5381 15.8403 38.3515 16.424 37.4637C16.9952 36.5948 18.0976 36.2747 19.0454 36.7024L20.819 37.5028L22.2021 40.09C21.0583 40.5662 20.1389 41.4761 19.6505 42.6135ZM38.0031 50.3278C37.9841 50.3278 37.9672 50.3157 37.9609 50.2977L36.7018 46.674H38.0478V50.283C38.0478 50.3077 38.0277 50.3278 38.0031 50.3278ZM45.3535 33.0981C44.8271 29.3957 45.527 23.8326 45.9454 21.0892C46.87 23.0837 48.305 26.3937 49.197 29.4952C48.3328 31.2339 47.3545 33.3642 46.6169 35.4266C46.2337 34.867 45.8433 34.3276 45.4662 33.8251C45.4268 33.5906 45.3889 33.347 45.3535 33.0981ZM37.8283 40.09L39.2114 37.5028L40.985 36.7024C41.9328 36.2747 43.0353 36.5948 43.6064 37.4637C44.19 38.3515 44.0182 39.5382 43.2069 40.224L40.38 42.6135C39.8914 41.4761 38.9721 40.5662 37.8283 40.09ZM43.896 42.0553C43.8107 41.8103 43.7301 41.5423 43.6551 41.2581C45.0514 40.255 45.4715 38.3186 44.508 36.871C44.1198 36.2805 43.5691 35.8581 42.9506 35.6299C42.9023 34.3703 42.9085 33.2195 42.9288 32.3548C43.7573 33.3518 45.0479 34.9785 46.1844 36.722C45.9836 37.3739 45.8158 38.0086 45.6935 38.6101C45.2056 41.0094 45.1144 42.8106 45.4193 44.0782H44.7628C44.4614 43.5213 44.1705 42.8433 43.896 42.0553ZM43.0683 45.2436C43.0785 45.1936 43.1232 45.1573 43.1747 45.1573H51.7238C51.7752 45.1573 51.8199 45.1935 51.83 45.2432C51.9179 45.6711 51.9424 46.118 51.9016 46.5534H42.9974C42.9544 46.1151 42.9816 45.6708 43.0683 45.2436ZM50.5452 49.3689C49.6586 50.2198 48.4918 50.6602 47.2603 50.6101C45.4256 50.5348 43.8394 49.3027 43.237 47.6325H51.6675C51.4385 48.2826 51.0594 48.8754 50.5452 49.3689Z" fill="white"/>
</svg>
