<svg width="68" height="68" viewBox="0 0 68 68" fill="none" xmlns="http://www.w3.org/2000/svg">
<circle cx="34" cy="34" r="33.5" stroke="white"/>
<g clip-path="url(#clip0_26_197)">
<path d="M19.4333 19.75H16.9C15.8507 19.75 15 20.6007 15 21.65V38.1167C15 39.1659 15.8507 40.0167 16.9 40.0167H17.5333V45.0833H16.9C15.8507 45.0833 15 45.9341 15 46.9833V48.25H21.3333V46.9833C21.3333 45.9341 20.4826 45.0833 19.4333 45.0833H18.8V40.0167H19.4333C20.4826 40.0167 21.3333 39.1659 21.3333 38.1167V21.65C21.3333 20.6007 20.4826 19.75 19.4333 19.75ZM20.0667 46.9833H16.2667C16.2667 46.6336 16.5502 46.35 16.9 46.35H19.4333C19.7831 46.35 20.0667 46.6336 20.0667 46.9833ZM20.0667 30.5167V38.1167C20.0667 38.4664 19.7831 38.75 19.4333 38.75H16.9C16.5502 38.75 16.2667 38.4664 16.2667 38.1167V21.65C16.2667 21.3002 16.5502 21.0167 16.9 21.0167H19.4333C19.7831 21.0167 20.0667 21.3002 20.0667 21.65V30.5167Z" fill="white"/>
<path d="M18.1667 33.6833C17.1175 33.6833 16.2667 34.5341 16.2667 35.5833C16.2667 36.6326 17.1175 37.4833 18.1667 37.4833C19.216 37.4833 20.0667 36.6326 20.0667 35.5833C20.0667 34.5341 19.216 33.6833 18.1667 33.6833ZM18.1667 36.2167C17.817 36.2167 17.5334 35.9331 17.5334 35.5833C17.5334 35.2336 17.817 34.95 18.1667 34.95C18.5165 34.95 18.8001 35.2336 18.8001 35.5833C18.8001 35.9331 18.5165 36.2167 18.1667 36.2167Z" fill="white"/>
<path d="M18.1667 28.6166C17.1175 28.6166 16.2667 29.4674 16.2667 30.5166C16.2667 31.5659 17.1175 32.4166 18.1667 32.4166C19.216 32.4166 20.0667 31.5659 20.0667 30.5166C20.0667 29.4674 19.216 28.6166 18.1667 28.6166ZM18.1667 31.15C17.817 31.15 17.5334 30.8664 17.5334 30.5166C17.5334 30.1669 17.817 29.8833 18.1667 29.8833C18.5165 29.8833 18.8001 30.1669 18.8001 30.5166C18.8001 30.8664 18.5165 31.15 18.1667 31.15Z" fill="white"/>
<path d="M17.5333 22.2833H18.8V23.55H17.5333V22.2833Z" fill="white"/>
<path d="M19.4334 26.0833C19.4334 26.7828 18.8662 27.35 18.1667 27.35C17.4672 27.35 16.9 26.7828 16.9 26.0833C16.9 25.3838 17.4672 24.8167 18.1667 24.8167C18.8662 24.8167 19.4334 25.3838 19.4334 26.0833Z" fill="white"/>
<path d="M51.1 40.0167C52.1492 40.0167 53 39.1659 53 38.1167V21.65C53 20.6007 52.1492 19.75 51.1 19.75H48.5666C47.5174 19.75 46.6666 20.6007 46.6666 21.65V38.1167C46.6666 39.1659 47.5174 40.0167 48.5666 40.0167H49.2V45.0833H48.5666C47.5174 45.0833 46.6666 45.9341 46.6666 46.9833V48.25H53V46.9833C53 45.9341 52.1492 45.0833 51.1 45.0833H50.4666V40.0167H51.1ZM51.7333 46.9833H47.9333C47.9333 46.6336 48.2169 46.35 48.5666 46.35H51.1C51.4497 46.35 51.7333 46.6336 51.7333 46.9833ZM47.9333 38.1167V21.65C47.9333 21.3002 48.2169 21.0167 48.5666 21.0167H51.1C51.4497 21.0167 51.7333 21.3002 51.7333 21.65V38.1167C51.7333 38.4664 51.4497 38.75 51.1 38.75H48.5666C48.2169 38.75 47.9333 38.4664 47.9333 38.1167Z" fill="white"/>
<path d="M49.8333 37.4833C50.8826 37.4833 51.7333 36.6326 51.7333 35.5833C51.7333 34.5341 50.8826 33.6833 49.8333 33.6833C48.7841 33.6833 47.9333 34.5341 47.9333 35.5833C47.9333 36.6326 48.7841 37.4833 49.8333 37.4833ZM49.8333 34.95C50.1831 34.95 50.4667 35.2336 50.4667 35.5833C50.4667 35.9331 50.1831 36.2167 49.8333 36.2167C49.4836 36.2167 49.2 35.9331 49.2 35.5833C49.2 35.2336 49.4836 34.95 49.8333 34.95Z" fill="white"/>
<path d="M49.8333 32.4166C50.8826 32.4166 51.7333 31.5659 51.7333 30.5166C51.7333 29.4674 50.8826 28.6166 49.8333 28.6166C48.7841 28.6166 47.9333 29.4674 47.9333 30.5166C47.9333 31.5659 48.7841 32.4166 49.8333 32.4166ZM49.8333 29.8833C50.1831 29.8833 50.4667 30.1669 50.4667 30.5166C50.4667 30.8664 50.1831 31.15 49.8333 31.15C49.4836 31.15 49.2 30.8664 49.2 30.5166C49.2 30.1669 49.4836 29.8833 49.8333 29.8833Z" fill="white"/>
<path d="M49.2 22.2833H50.4666V23.55H49.2V22.2833Z" fill="white"/>
<path d="M51.1 26.0833C51.1 26.7828 50.5328 27.35 49.8333 27.35C49.1338 27.35 48.5667 26.7828 48.5667 26.0833C48.5667 25.3838 49.1338 24.8167 49.8333 24.8167C50.5328 24.8167 51.1 25.3838 51.1 26.0833Z" fill="white"/>
<path d="M27.0333 40.0167H30.2V41.2833H27.0333V40.0167Z" fill="white"/>
<path d="M37.8 40.0167H40.9667V41.2833H37.8V40.0167Z" fill="white"/>
<path d="M43.5 36.2167C44.5492 36.2167 45.4 35.3659 45.4 34.3167V21.65C45.4 20.6007 44.5492 19.75 43.5 19.75H24.5C23.4507 19.75 22.6 20.6007 22.6 21.65V34.3167C22.6 35.3659 23.4507 36.2167 24.5 36.2167H30.2V38.1167H22.6V48.25H45.4V38.1167H37.8V36.2167H43.5ZM33.3666 46.9833H23.8666V39.3833H33.3666V46.9833ZM31.4666 38.1167V36.2167H36.5333V38.1167H31.4666ZM44.1333 39.3833V46.9833H34.6333V39.3833H44.1333ZM24.5 34.95C24.1502 34.95 23.8666 34.6664 23.8666 34.3167V21.65C23.8666 21.3002 24.1502 21.0167 24.5 21.0167H43.5C43.8497 21.0167 44.1333 21.3002 44.1333 21.65V34.3167C44.1333 34.6664 43.8497 34.95 43.5 34.95H24.5Z" fill="white"/>
<path d="M42.8666 25.45V23.55C42.8666 22.8505 42.2995 22.2833 41.6 22.2833H39.7V23.55H41.6V25.45H42.8666Z" fill="white"/>
</g>
<defs>
<clipPath id="clip0_26_197">
<rect width="38" height="38" fill="white" transform="translate(15 15)"/>
</clipPath>
</defs>
</svg>
