<svg width="69" height="68" viewBox="0 0 69 68" fill="none" xmlns="http://www.w3.org/2000/svg">
<circle cx="34.5" cy="34" r="33.5" stroke="white"/>
<path d="M52.0391 38.4992H50.9102C49.1688 38.4992 47.752 39.916 47.752 41.6574V42.4336H42.6996V40.901H44.2177C45.4239 40.901 46.5449 40.216 47.3741 38.9721C48.1659 37.7845 48.6019 36.2141 48.6019 34.5502C48.6019 33.9753 48.5486 33.4121 48.4478 32.8714H48.9822C49.7286 32.8714 50.3357 32.2642 50.3357 31.5179V28.5663C50.3357 27.82 49.7286 27.2128 48.9822 27.2128H45.8596C45.7881 26.9081 45.6358 26.6186 45.3986 26.3815C45.0698 26.0526 44.6324 25.8715 44.1673 25.8715C43.7022 25.8715 43.2648 26.0526 42.9361 26.3815C42.7037 26.6138 42.5469 26.9007 42.4738 27.2128H31.7914H30.6964H26.6912H18.1432H18.0815C17.455 27.2128 16.8828 27.53 16.5509 28.0614C16.219 28.5928 16.1849 29.2461 16.4598 29.8091L18.541 34.0726C18.9711 34.954 19.8612 35.5362 20.8349 35.5872C20.9771 36.859 21.3793 38.0349 22.0041 38.9721C22.8333 40.216 23.9542 40.901 25.1605 40.901C25.3951 40.901 25.6262 40.8743 25.8528 40.8235C26.0114 40.874 26.1784 40.901 26.3499 40.901H30.7664H36.227V45.5024C36.227 46.7463 37.239 47.7583 38.4829 47.7583H40.4437C41.4876 47.7583 42.3679 47.0453 42.624 46.0809H47.752V46.8572C47.752 48.5986 49.1688 50.0154 50.9102 50.0154H52.0391C52.2883 50.0154 52.4902 49.8134 52.4902 49.5642V38.9503C52.4902 38.7012 52.2883 38.4992 52.0391 38.4992ZM43.5741 27.0195C43.7326 26.8611 43.9432 26.7738 44.1673 26.7738C44.3915 26.7738 44.6021 26.8611 44.7605 27.0195C45.0876 27.3466 45.0877 27.879 44.7607 28.2061C44.6021 28.3646 44.3914 28.4518 44.1674 28.4518C43.9432 28.4518 43.7326 28.3646 43.574 28.2061C43.4156 28.0476 43.3283 27.8369 43.3283 27.6128C43.3283 27.3887 43.4156 27.178 43.5741 27.0195ZM25.9084 28.5687C26.0712 28.2847 26.3639 28.1151 26.6912 28.1151H30.6965H31.3402H42.4994C42.581 28.3876 42.7292 28.6373 42.936 28.8441C43.2648 29.173 43.7022 29.3542 44.1674 29.3542C44.6325 29.3542 45.0698 29.173 45.3987 28.8441C45.6092 28.6336 45.7541 28.3821 45.8341 28.1151H48.9822C49.231 28.1151 49.4334 28.3175 49.4334 28.5663V31.5179C49.4334 31.7666 49.231 31.969 48.9822 31.969H44.1766C43.4471 31.969 42.7703 32.3318 42.3665 32.9394L41.5802 34.1224C41.344 34.4777 40.9483 34.6898 40.5216 34.6898H31.3402H30.0026C29.3645 34.6898 28.7679 34.3478 28.4454 33.7973L25.9127 29.4736C25.7472 29.191 25.7456 28.8528 25.9084 28.5687ZM26.7282 34.5502C26.7282 36.5323 25.902 37.9137 25.1605 37.9137C24.4191 37.9137 23.593 36.5323 23.593 34.5502C23.593 32.568 24.4191 31.1867 25.1605 31.1867C25.902 31.1867 26.7282 32.568 26.7282 34.5502ZM17.4068 29.5572L17.3424 29.4333C17.1959 29.1512 17.207 28.8206 17.372 28.549C17.537 28.2773 17.8254 28.1151 18.1432 28.1151H25.1285C25.1276 28.1168 25.1265 28.1183 25.1255 28.12C24.8047 28.6797 24.8038 29.3445 25.1204 29.9044H17.9782C17.7369 29.9044 17.5179 29.7714 17.4068 29.5572ZM20.7763 34.5502C20.7763 34.5929 20.7778 34.6353 20.7784 34.6779C20.1701 34.6105 19.6234 34.2332 19.3519 33.6768L17.9504 30.8058C17.9597 30.806 17.9689 30.8067 17.9782 30.8067H21.6114C21.0697 31.8856 20.7763 33.1863 20.7763 34.5502ZM25.1605 39.9987C23.2406 39.9987 21.6786 37.5545 21.6786 34.5502C21.6786 33.1013 22.0426 31.7837 22.6342 30.8067H23.9589C23.1968 31.5252 22.6906 32.9165 22.6906 34.5502C22.6906 36.9422 23.7755 38.816 25.1605 38.816C26.5456 38.816 27.6305 36.9422 27.6305 34.5502C27.6305 34.4234 27.6268 34.2985 27.6208 34.1749L27.6668 34.2533C27.9003 34.6521 28.2303 34.9769 28.6163 35.2072C28.4081 37.9026 26.9383 39.9987 25.1605 39.9987ZM30.5012 39.9987H27.4271C27.7495 39.7175 28.0488 39.3746 28.317 38.9721C28.941 38.0362 29.3429 36.8621 29.4857 35.5922H30.0026H31.7914H40.5216C41.2512 35.5922 41.9279 35.2295 42.3316 34.6218L43.1179 33.4389C43.3541 33.0835 43.7499 32.8714 44.1766 32.8714H47.5297C47.6395 33.4005 47.6995 33.9645 47.6995 34.5502C47.6995 35.273 47.6083 35.9629 47.4442 36.5946H33.9871C33.0054 36.5946 32.099 37.1274 31.6218 37.9852L30.5012 39.9987ZM41.7972 45.5024C41.7972 46.2487 41.1901 46.8559 40.4437 46.8559H38.4829C37.7365 46.8559 37.1293 46.2487 37.1293 45.5024V40.901H41.7972V45.5024ZM31.5338 39.9987L32.4103 38.424C32.7285 37.8522 33.3326 37.497 33.9871 37.497H47.144C46.5236 39.0005 45.4441 39.9987 44.2177 39.9987L31.5338 39.9987ZM47.752 45.1786H42.6996V43.336H47.752V45.1786ZM51.5879 49.1131H50.9102C49.6663 49.1131 48.6543 48.1011 48.6543 46.8572V41.6574C48.6543 40.4135 49.6663 39.4015 50.9102 39.4015H51.5879V49.1131Z" fill="white"/>
<path d="M44.1673 20.1425C46.2063 20.1425 48.1231 20.9416 49.5645 22.3926L50.2046 21.7567C48.5926 20.1339 46.4485 19.2401 44.1673 19.2401C41.8861 19.2401 39.742 20.1339 38.13 21.7567L38.7701 22.3926C40.2115 20.9416 42.1282 20.1425 44.1673 20.1425Z" fill="white"/>
<path d="M48.5852 23.3721C47.4027 22.1971 45.8338 21.55 44.1674 21.55C42.501 21.55 40.932 22.1971 39.7495 23.3721L40.3855 24.0122C41.3978 23.0063 42.7409 22.4524 44.1674 22.4524C45.5938 22.4524 46.9369 23.0063 47.9491 24.0122L48.5852 23.3721Z" fill="white"/>
<path d="M41.3024 24.9237L41.9372 25.565C42.5349 24.9734 43.3269 24.6475 44.1674 24.6475C45.0079 24.6475 45.7998 24.9734 46.3975 25.565L47.0323 24.9237C46.2646 24.1638 45.2471 23.7452 44.1674 23.7452C43.0876 23.7452 42.0701 24.1638 41.3024 24.9237Z" fill="white"/>
</svg>
