<svg width="68" height="68" viewBox="0 0 68 68" fill="none" xmlns="http://www.w3.org/2000/svg">
<circle cx="34" cy="34" r="33.5" stroke="white"/>
<g clip-path="url(#clip0_26_226)">
<path d="M44.8537 34.6769C45.5804 34.6776 46.291 34.4629 46.8956 34.0597C47.5002 33.6566 47.9716 33.0831 48.2502 32.412C48.5289 31.7409 48.6022 31.0021 48.4609 30.2893C48.3196 29.5765 47.9701 28.9216 47.4565 28.4075C46.9429 27.8934 46.2884 27.5431 45.5757 27.4011C44.8631 27.259 44.1243 27.3315 43.4529 27.6094C42.7814 27.8873 42.2075 28.3582 41.8037 28.9623C41.3999 29.5665 41.1843 30.2768 41.1843 31.0035C41.1854 31.9768 41.5722 32.9099 42.26 33.5984C42.9478 34.287 43.8805 34.6748 44.8537 34.6769ZM44.8537 28.1219C45.4238 28.1211 45.9813 28.2894 46.4557 28.6056C46.9302 28.9218 47.3001 29.3715 47.5188 29.898C47.7375 30.4245 47.7952 31.004 47.6844 31.5633C47.5737 32.1225 47.2996 32.6364 46.8967 33.0398C46.4939 33.4432 45.9804 33.718 45.4213 33.8295C44.8622 33.941 44.2826 33.8842 43.7558 33.6662C43.229 33.4482 42.7787 33.0789 42.4619 32.6049C42.1451 32.1309 41.976 31.5736 41.976 31.0035C41.977 30.2403 42.2804 29.5085 42.8198 28.9684C43.3591 28.4284 44.0904 28.124 44.8537 28.1219Z" fill="white"/>
<path d="M52.8852 25.4421L45.2496 17.8064V16.706C45.2496 16.601 45.2079 16.5004 45.1336 16.4261C45.0594 16.3519 44.9587 16.3102 44.8538 16.3102C44.7488 16.3102 44.6481 16.3519 44.5739 16.4261C44.4996 16.5004 44.4579 16.601 44.4579 16.706V17.8104L36.8263 25.4421C36.7704 25.4974 36.7324 25.5682 36.7169 25.6452C36.7014 25.7223 36.7093 25.8023 36.7394 25.8749C36.7696 25.9475 36.8207 26.0095 36.8862 26.053C36.9517 26.0964 37.0287 26.1194 37.1073 26.1189H38.1325V31.6804H33.3825C33.2775 31.6804 33.1768 31.7221 33.1026 31.7963C33.0284 31.8706 32.9867 31.9712 32.9867 32.0762C32.9867 32.1812 33.0284 32.2819 33.1026 32.3561C33.1768 32.4304 33.2775 32.4721 33.3825 32.4721H33.905V35.6031C33.1818 35.7936 32.5034 36.1249 31.9084 36.5779C31.3134 37.031 30.8135 37.5969 30.4375 38.2433L29.9467 39.0943V32.0762C29.9467 31.9712 29.905 31.8706 29.8307 31.7963C29.7565 31.7221 29.6558 31.6804 29.5508 31.6804H27.3025C27.1975 31.6804 27.0968 31.7221 27.0226 31.7963C26.9484 31.8706 26.9067 31.9712 26.9067 32.0762V32.5868H18.04V32.0762C18.04 31.9712 17.9983 31.8706 17.9241 31.7963C17.8498 31.7221 17.7491 31.6804 17.6442 31.6804H15.3958C15.2909 31.6804 15.1902 31.7221 15.1159 31.7963C15.0417 31.8706 15 31.9712 15 32.0762V51.2939C15 51.3989 15.0417 51.4996 15.1159 51.5738C15.1902 51.6481 15.2909 51.6898 15.3958 51.6898H23.4194C24.6817 51.6942 25.9093 51.2761 26.9067 50.5023V51.2939C26.9067 51.3989 26.9484 51.4996 27.0226 51.5738C27.0968 51.6481 27.1975 51.6898 27.3025 51.6898H29.5548C29.6366 51.6894 29.7163 51.6638 29.783 51.6163C29.8496 51.5688 29.8999 51.5018 29.9269 51.4246C30.1925 51.5991 30.5037 51.6913 30.8215 51.6898H41.7188C41.8237 51.6898 41.9244 51.6481 41.9986 51.5738C42.0729 51.4996 42.1146 51.3989 42.1146 51.2939V46.1046C42.1146 45.9996 42.0729 45.8989 41.9986 45.8247C41.9244 45.7504 41.8237 45.7087 41.7188 45.7087H40.7054V38.8846H42.6173V51.2939C42.6173 51.3989 42.659 51.4996 42.7332 51.5738C42.8075 51.6481 42.9081 51.6898 43.0131 51.6898C43.1181 51.6898 43.2188 51.6481 43.293 51.5738C43.3673 51.4996 43.409 51.3989 43.409 51.2939V50.5458H46.3025V51.2939C46.3025 51.3989 46.3442 51.4996 46.4184 51.5738C46.4927 51.6481 46.5934 51.6898 46.6983 51.6898C46.8033 51.6898 46.904 51.6481 46.9782 51.5738C47.0525 51.4996 47.0942 51.3989 47.0942 51.2939V38.8846H49.0021V51.2939C49.0021 51.3989 49.0438 51.4996 49.118 51.5738C49.1923 51.6481 49.2929 51.6898 49.3979 51.6898H51.1831C51.2881 51.6898 51.3888 51.6481 51.463 51.5738C51.5373 51.4996 51.579 51.3989 51.579 51.2939V26.1189H52.6042C52.6828 26.1194 52.7598 26.0964 52.8253 26.053C52.8908 26.0095 52.9419 25.9475 52.972 25.8749C53.0022 25.8023 53.01 25.7223 52.9946 25.6452C52.9791 25.5682 52.941 25.4974 52.8852 25.4421ZM36.9252 32.4721H38.1127V35.4171H36.9252V32.4721ZM34.7006 32.4721H36.1335V35.4171C35.6556 35.3992 35.1769 35.4124 34.7006 35.4566V32.4721ZM27.6983 32.4721H29.159V40.4639L27.6983 42.9933V32.4721ZM18.04 33.3785H26.9067V34.3958H18.04V33.3785ZM25.3471 44.735H25.0265V35.1875H26.9067V44.3708L25.7429 46.3856V45.1308C25.7429 45.0258 25.7012 44.9251 25.627 44.8509C25.5527 44.7767 25.4521 44.735 25.3471 44.735ZM24.9513 45.5266V46.4252H19.9994V45.5266H24.9513ZM20.7158 44.735V35.1875H24.2348V44.735H20.7158ZM18.04 35.1875H19.9242V44.735H19.6035C19.4986 44.735 19.3979 44.7767 19.3236 44.8509C19.2494 44.9251 19.2077 45.0258 19.2077 45.1308V46.821C19.2077 46.926 19.2494 47.0267 19.3236 47.1009C19.3979 47.1751 19.4986 47.2168 19.6035 47.2168H25.2521C25.0578 47.5251 24.7885 47.7791 24.4694 47.9549C24.1502 48.1308 23.7917 48.2228 23.4273 48.2223H22.7346C22.5443 48.2223 22.3561 48.2629 22.1828 48.3414C22.0094 48.4199 21.8547 48.5345 21.7292 48.6775L21.1235 49.3662C21.0741 49.4219 21.013 49.4661 20.9446 49.4955C20.8762 49.5249 20.8021 49.5389 20.7277 49.5364H18.04V35.1875ZM16.2627 50.8981H15.7917V32.4721H17.2483V49.5364C17.0871 49.5443 16.9297 49.5883 16.7878 49.6651C16.6459 49.742 16.5231 49.8498 16.4285 49.9805C16.3338 50.1113 16.2698 50.2616 16.2411 50.4204C16.2124 50.5793 16.2198 50.7425 16.2627 50.8981ZM29.159 50.8981H27.6983V49.7106C28.1535 49.1921 28.3158 48.8477 29.159 47.3871V50.8981ZM29.159 43.5871V45.8156C27.5083 48.6735 27.4371 48.8754 26.9067 49.4216C26.4535 49.8882 25.9114 50.2592 25.3125 50.5128C24.7135 50.7664 24.0698 50.8974 23.4194 50.8981C17.1256 50.8981 17.2879 50.8981 17.2483 50.8981C17.1819 50.8869 17.1216 50.8525 17.0781 50.8011C17.0345 50.7496 17.0107 50.6844 17.0107 50.6171C17.0107 50.5497 17.0345 50.4845 17.0781 50.433C17.1216 50.3816 17.1819 50.3472 17.2483 50.336H20.7475C20.9337 50.3367 21.1179 50.2971 21.2873 50.2199C21.4568 50.1427 21.6075 50.0297 21.7292 49.8887L22.3229 49.2C22.3724 49.1432 22.4331 49.0973 22.5012 49.0653C22.5694 49.0332 22.6435 49.0158 22.7188 49.0139H23.4115C23.9301 49.013 24.4395 48.8762 24.8888 48.6171C25.3382 48.3581 25.7118 47.9858 25.9725 47.5375L31.1183 38.6391C31.5464 37.901 32.1606 37.288 32.8996 36.8615C33.6387 36.4351 34.4767 36.21 35.33 36.2087H38.1246V38.0929H35.33C34.8103 38.0935 34.2998 38.2306 33.8497 38.4904C33.3996 38.7502 33.0256 39.1236 32.765 39.5733L31.4073 41.9166H30.8333C30.6135 41.9156 30.3956 41.9581 30.1923 42.0416C29.9889 42.1251 29.8041 42.2481 29.6484 42.4033C29.4928 42.5586 29.3694 42.7431 29.2854 42.9463C29.2014 43.1494 29.1584 43.3672 29.159 43.5871ZM38.1325 38.8846V41.9166H32.3217L33.4498 39.9652C33.6412 39.636 33.9155 39.3627 34.2454 39.1724C34.5753 38.9821 34.9492 38.8815 35.33 38.8806L38.1325 38.8846ZM39.9138 50.8981H30.8333C30.6024 50.8981 30.3809 50.8064 30.2176 50.643C30.0543 50.4797 29.9625 50.2582 29.9625 50.0273V43.5871C29.9615 43.472 29.9832 43.3579 30.0265 43.2514C30.0698 43.1448 30.1338 43.0479 30.2147 42.9662C30.2957 42.8845 30.3921 42.8196 30.4982 42.7753C30.6044 42.7311 30.7183 42.7083 30.8333 42.7083H39.9375L39.9138 50.8981ZM39.9138 41.9206H38.9242V38.8846H39.9138V41.9206ZM41.3229 46.5004V50.8981H40.7054V46.5004H41.3229ZM46.3025 49.7541H43.409V48.5231H46.3025V49.7541ZM46.3025 47.7314H43.409V46.5004H46.3025V47.7314ZM46.3025 45.7087H43.409V44.4737H46.3025V45.7087ZM46.3025 43.6821H43.409V42.451H46.3025V43.6821ZM46.3025 41.6593H43.409V40.4283H46.3025V41.6593ZM46.3025 39.6366H43.409V38.8846H46.3025V39.6366ZM50.7873 50.8981H49.7938V38.8846H50.7873V50.8981ZM50.7873 38.0929H38.9123V36.6798H50.7873V38.0929ZM50.7873 35.8881H38.9123V26.1189H50.7873V35.8881ZM38.0613 25.3273L44.8538 18.5348L51.6502 25.3273H38.0613Z" fill="white"/>
<path d="M34.9343 44.0699C34.3922 44.0692 33.8621 44.2293 33.411 44.5299C32.9599 44.8306 32.6082 45.2584 32.4004 45.7591C32.1926 46.2597 32.138 46.8108 32.2436 47.3425C32.3492 47.8742 32.6101 48.3627 32.9934 48.746C33.3768 49.1293 33.8652 49.3903 34.3969 49.4958C34.9286 49.6014 35.4797 49.5468 35.9804 49.339C36.4811 49.1312 36.9088 48.7795 37.2095 48.3284C37.5102 47.8774 37.6703 47.3472 37.6695 46.8052C37.6684 46.0801 37.3799 45.385 36.8672 44.8722C36.3545 44.3595 35.6594 44.071 34.9343 44.0699ZM34.9343 48.7527C34.5489 48.7534 34.172 48.6399 33.8512 48.4264C33.5305 48.2129 33.2802 47.909 33.1322 47.5532C32.9842 47.1974 32.9451 46.8057 33.0198 46.4277C33.0945 46.0496 33.2796 45.7022 33.5518 45.4295C33.824 45.1567 34.171 44.9708 34.5489 44.8954C34.9268 44.8199 35.3186 44.8582 35.6747 45.0055C36.0308 45.1528 36.3352 45.4024 36.5493 45.7228C36.7635 46.0431 36.8778 46.4198 36.8778 46.8052C36.8768 47.3207 36.6718 47.8148 36.3077 48.1797C35.9435 48.5446 35.4498 48.7506 34.9343 48.7527Z" fill="white"/>
<path d="M38.8292 44.2917C38.9075 44.2917 38.984 44.2684 39.0491 44.225C39.1142 44.1815 39.1649 44.1196 39.1949 44.0473C39.2248 43.975 39.2327 43.8954 39.2174 43.8186C39.2021 43.7418 39.1644 43.6713 39.1091 43.6159C39.0537 43.5606 38.9832 43.5229 38.9064 43.5076C38.8296 43.4923 38.75 43.5002 38.6777 43.5301C38.6054 43.5601 38.5436 43.6108 38.5001 43.6759C38.4566 43.741 38.4333 43.8175 38.4333 43.8958C38.4333 44.0008 38.4751 44.1015 38.5493 44.1757C38.6235 44.25 38.7242 44.2917 38.8292 44.2917Z" fill="white"/>
<path d="M31.0115 44.2917C31.0683 44.3003 31.1262 44.2965 31.1813 44.2805C31.2364 44.2645 31.2874 44.2367 31.3307 44.199C31.374 44.1614 31.4086 44.1147 31.4321 44.0624C31.4556 44.01 31.4674 43.9532 31.4667 43.8958C31.4667 43.7909 31.425 43.6902 31.3508 43.6159C31.2766 43.5417 31.1759 43.5 31.0709 43.5C30.9659 43.5 30.8652 43.5417 30.791 43.6159C30.7168 43.6902 30.6751 43.7909 30.6751 43.8958C30.674 43.9913 30.7075 44.0839 30.7693 44.1567C30.8311 44.2294 30.9171 44.2774 31.0115 44.2917Z" fill="white"/>
<path d="M38.8292 49.481C38.7509 49.481 38.6744 49.5042 38.6093 49.5477C38.5442 49.5912 38.4934 49.653 38.4635 49.7254C38.4335 49.7977 38.4257 49.8773 38.441 49.9541C38.4562 50.0309 38.4939 50.1014 38.5493 50.1567C38.6046 50.2121 38.6752 50.2498 38.752 50.2651C38.8287 50.2804 38.9083 50.2725 38.9807 50.2426C39.053 50.2126 39.1148 50.1619 39.1583 50.0968C39.2018 50.0317 39.225 49.9551 39.225 49.8769C39.225 49.7719 39.1833 49.6712 39.1091 49.597C39.0348 49.5227 38.9342 49.481 38.8292 49.481Z" fill="white"/>
<path d="M31.0748 49.481C30.9965 49.481 30.92 49.5042 30.8549 49.5477C30.7898 49.5912 30.739 49.653 30.7091 49.7254C30.6791 49.7977 30.6713 49.8773 30.6866 49.9541C30.7018 50.0309 30.7395 50.1014 30.7949 50.1567C30.8503 50.2121 30.9208 50.2498 30.9976 50.2651C31.0743 50.2804 31.1539 50.2725 31.2263 50.2426C31.2986 50.2126 31.3604 50.1619 31.4039 50.0968C31.4474 50.0317 31.4706 49.9551 31.4706 49.8769C31.4706 49.7719 31.4289 49.6712 31.3547 49.597C31.2805 49.5227 31.1798 49.481 31.0748 49.481Z" fill="white"/>
</g>
<defs>
<clipPath id="clip0_26_226">
<rect width="38" height="38" fill="white" transform="translate(15 15)"/>
</clipPath>
</defs>
</svg>
