<svg width="68" height="68" viewBox="0 0 68 68" fill="none" xmlns="http://www.w3.org/2000/svg">
<circle cx="34" cy="34" r="33.5" stroke="white"/>
<path d="M54.197 38.3235C54.0735 37.4588 53.7647 36.2235 53.0853 35.1735C52.5912 34.3706 51.7264 33.6912 51.2941 32.95C48.3912 27.9471 46.5382 26.0941 42.647 23.6235C41.7206 23.0059 40.3 22.1412 39.25 22.45C38.6941 22.6353 38.3235 23.0059 38.0147 23.3147C36.2853 25.1059 34.4941 27.0206 32.8882 28.9971C32.147 29.9235 31.2206 30.9118 30.7264 32.0853C30.3559 33.0118 30.1706 33.9382 29.6147 34.7412C29.2441 35.2971 28.5647 35.7912 27.8853 35.7294C27.8235 35.5441 27.7 35.4206 27.5764 35.2353C26.9588 33.8765 26.4029 33.1353 25.847 32.5176C25.9088 32.3323 25.9088 32.1471 25.9706 31.9618C26.0323 31.4676 25.3529 31.2206 25.1059 31.6529L25.0441 31.7147C24.9823 31.6529 24.9206 31.6529 24.8588 31.5912C24.6735 31.2823 24.55 30.9118 24.3647 30.6647C23.9323 30.1706 23.1912 29.7382 22.3264 29.5529C19.9176 29.1206 16.7676 30.7882 15.7176 33.4441C15.1 35.05 15.347 36.8412 16.3353 38.0765C16.397 38.1382 16.4588 38.2 16.5206 38.2C16.5823 38.3235 16.5823 38.4471 16.6441 38.6324C15.5941 39.0029 14.6059 39.5588 13.7411 40.2382C13.5559 40.4235 13.4941 40.6706 13.6794 40.9176C13.8647 41.1029 14.1117 41.1647 14.3588 40.9794C16.5206 39.25 19.4853 38.5706 22.2029 39.3735C22.8206 39.5588 23.3764 39.7441 23.9941 39.9912C26.9588 41.1647 27.947 41.2882 31.5912 40.1147C33.0117 39.6824 34.3706 39.25 35.7912 39.4353C36.6559 39.5588 37.4588 39.8676 38.3235 40.1765C41.0412 41.2265 41.8441 41.1647 43.8823 40.6088C44.3147 40.4853 44.6853 40.3618 45.1176 40.3C45.9823 40.1765 47.0941 40.2382 47.5882 41.0412C47.65 41.1647 47.8353 41.2265 47.9588 41.2265C48.3294 41.2265 48.5764 40.8559 48.3294 40.4853C47.5882 39.3118 46.1059 39.1265 44.9323 39.3735C44.5 39.4353 44.0059 39.5588 43.5735 39.6824C43.3264 39.7441 43.0176 39.8676 42.7706 39.9294C42.7088 39.8676 42.647 39.8059 42.5853 39.8059C40.0529 39.1265 38.5706 38.2618 37.15 36.6559C37.2117 36.3471 37.5206 36.1 37.7676 35.7294C38.5706 34.5559 39.0029 33.1353 39.0029 31.7147C39.8676 31.2206 40.4235 30.1706 40.3617 29.1824V29.1206C41.6588 29.4294 40.9176 29.2441 42.2147 29.7382C43.2647 30.1706 44.6853 30.7882 45.6117 31.4676C47.5882 32.8265 47.8353 33.9382 48.2059 35.1118C48.4529 36.0382 48.7 37.0265 49.4412 37.8294C49.6264 38.0147 49.997 38.0147 50.1823 37.7676C50.5529 37.2118 50.4912 36.5941 50.3676 36.0382C51.2323 36.5323 52.0353 37.9529 52.2823 38.8176C52.4059 39.3118 52.7147 39.6824 53.2088 39.6824C53.5794 39.6824 53.8882 39.4353 54.0117 39.0647C54.2588 38.8176 54.2588 38.5088 54.197 38.3235ZM23.5 32.7029C21.0911 33.6294 21.7706 35.1118 21.5853 35.3588C21.5235 35.4206 21.2764 35.4824 20.9059 35.4824C20.1029 35.5441 19.3 36.1 18.6823 36.5941C18.1264 37.0882 17.6941 37.3971 17.5706 37.4588C17.5088 37.4588 17.447 37.4588 17.3853 37.4588C17.3853 37.3353 17.3235 37.2118 17.3235 37.0265C17.447 36.4706 17.6323 35.9765 18.0029 35.3588C18.3117 34.9265 18.8059 34.4941 19.3 34.1235C20.9676 32.7647 21.647 32.0235 23.9941 32.5176C23.9323 32.5794 23.6235 32.7029 23.5 32.7029ZM23.8088 31.3441C23.8088 31.3441 23.8706 31.4676 23.9323 31.5294C22.3264 31.2206 21.0912 31.4676 19.3617 32.95C18.3735 33.8147 17.2617 34.3706 16.6441 36.2853C15.4706 32.0235 21.7706 28.9353 23.8088 31.3441ZM21.8941 38.3235C22.1411 37.9529 22.1411 37.5823 22.0794 37.15C22.0176 36.7176 21.9559 36.5941 22.8206 36.4706C22.9441 36.4706 23.0676 36.4088 23.1911 36.4088C24.0559 36.2235 24.797 35.6059 25.2912 34.6176C25.4147 34.3088 25.5382 34 25.6617 33.6294C25.9088 33.9382 26.0941 34.2471 26.3412 34.6176C27.2676 36.2853 28.0088 38.1382 27.5764 39.9912C25.6 39.8676 23.9323 38.6941 21.8941 38.3235ZM49.997 34.9265C49.8735 34.9265 49.75 34.9882 49.6264 35.05C49.4412 35.2353 49.5029 35.5441 49.5647 35.8529C49.0088 34.2471 49.1323 32.6412 46.3529 30.6647C45.3029 29.9235 43.8823 29.3059 42.7706 28.8735C41.7206 28.4412 40.4853 27.9471 40.1764 26.9588C40.1147 26.7118 39.8059 26.5882 39.6206 26.65C39.3735 26.7118 39.25 27.0206 39.3117 27.2059C39.4353 27.5147 39.5588 27.8235 39.8059 28.0706V28.1941C39.8059 29.2441 39.3117 30.2323 38.5088 30.7265C38.3853 30.7882 38.3235 30.9118 38.3235 31.0353C38.0764 33.2588 37.6441 35.4823 35.6059 36.0382C35.3588 36.1 35.2353 36.3471 35.297 36.5941C35.3588 36.7794 35.5441 36.9647 35.7294 36.9647H35.8529C36.0382 36.9029 36.2235 36.8412 36.347 36.7794C37.397 38.0147 38.3853 38.9412 39.7441 39.6206C39.497 39.4971 39.1882 39.4353 38.9412 39.3118C38.0764 39.0029 37.15 38.6323 36.1617 38.5088C34.5559 38.3235 33.0735 38.8176 31.5912 39.25C30.6647 39.5588 29.7382 39.8059 28.8117 39.9294C29.1206 39.0647 28.8117 37.5206 28.5029 36.6559C29.3676 36.5323 30.1088 35.9147 30.6029 35.2971C31.2823 34.3706 31.4676 33.3823 31.8382 32.4559C32.2088 31.4676 33.1353 30.4794 33.8147 29.6147C35.3588 27.6382 37.15 25.7853 38.8794 23.9941C39.1264 23.7471 39.3735 23.4382 39.6823 23.3765C40.4235 23.1294 42.0294 24.3029 42.7088 24.6735C46.6 27.0823 48.5147 29.7382 50.6764 33.4441C50.9853 33.9382 51.3559 34.3088 51.6647 34.7412C51.9735 35.05 52.2206 35.3588 52.4676 35.7294C52.9617 36.5323 53.2706 37.5206 53.3941 38.2C52.7764 37.0265 51.5412 34.9882 49.997 34.9265Z" fill="white"/>
<path d="M24.797 42.9559C21.8323 41.0412 17.8794 41.7206 15.7176 44.5618C15.5323 44.7471 15.5941 45.0559 15.7794 45.2412C15.9647 45.4265 16.2735 45.3647 16.4588 45.1794C18.1882 42.9559 21.2764 42.2147 23.8705 43.5735C23.747 43.8824 23.6235 44.1912 23.6852 44.5618C23.8088 46.2912 25.6617 47.3412 27.8235 46.2912C28.7499 45.8588 29.4911 45.1794 30.2941 44.6853C32.2088 43.45 34.6176 42.8941 36.9029 43.203C36.5941 43.9441 36.7176 44.8088 37.2735 45.3647C38.0146 46.1677 39.1882 46.2294 40.0529 46.0441C41.7823 45.6118 42.9558 44.1294 44.4999 43.7588C45.1176 43.6353 45.9205 43.7588 46.3529 44.253C46.6617 44.6235 46.7852 45.1794 47.3411 45.4882C48.5146 46.2912 49.9352 44.9941 50.7382 45.3647C50.9852 45.4883 51.2323 45.3647 51.3558 45.1177C51.4794 44.8706 51.3558 44.6235 51.1088 44.5C50.4294 44.1912 49.7499 44.3765 49.1323 44.5618C47.4646 45.0559 47.7735 44.5 47.0941 43.5735C46.4764 42.8324 45.4264 42.5235 44.3146 42.7706C42.5235 43.1412 41.4117 44.6235 39.8676 45.0559C38.7558 45.303 37.5823 44.8706 37.7058 43.7588C37.7058 43.6353 37.7676 43.3265 38.0147 43.203C38.3852 43.0177 38.2617 42.4618 37.8911 42.3382C35.1735 41.7206 32.147 42.2765 29.7999 43.8206C28.997 44.3147 28.2558 44.9941 27.4529 45.3647C26.7735 45.6735 25.847 45.8588 25.1676 45.4265C24.6117 45.0559 24.4264 44.1294 24.8588 43.7588C24.9823 43.5735 25.0441 43.1412 24.797 42.9559Z" fill="white"/>
<path d="M49.1323 49.75C46.9088 50.1206 47.4029 49.8118 46.3529 49.0706C45.5499 48.5147 44.3764 48.453 43.1411 48.8235C42.2146 49.1324 41.2882 49.6265 40.4235 49.8735C39.9911 49.9971 38.8176 50.2441 38.0764 49.6265C37.5823 49.1941 37.4588 48.2059 38.0146 47.8971C38.3852 47.65 38.2617 47.0941 37.8293 47.0324C32.7646 46.353 29.5529 49.6265 29.4911 49.6883C28.8117 50.3059 28.0705 50.9235 27.3293 50.4912C27.0205 50.3059 27.0205 49.9971 27.144 49.6265C27.2058 49.1941 27.2676 48.7 26.897 48.2677C26.5264 47.8353 25.9705 47.8353 25.6617 47.8353C22.8823 47.8353 20.1646 48.8235 18.0646 50.6147C17.8793 50.8 17.8176 51.0471 18.0029 51.2941C18.1882 51.4794 18.4352 51.5412 18.6823 51.3559C21.894 48.7 25.9705 48.6382 26.2176 48.8853C26.3411 49.0706 26.094 49.75 26.1558 50.3059C26.3411 51.2941 27.5146 51.7882 28.4411 51.4794C29.1823 51.2324 29.7382 50.7383 30.3558 50.1824C32.147 48.6382 34.494 47.8353 36.8411 47.8971C36.1617 49.5647 37.7676 51.6647 40.6705 50.8C42.3382 50.3059 44.3764 48.8853 45.8588 49.8735C46.847 50.553 46.7852 51.1088 49.3176 50.6765C49.5646 50.6147 50.4911 50.553 50.7999 51.0471C50.9235 51.2941 51.2323 51.3559 51.4176 51.2324C51.6646 51.1088 51.7264 50.8 51.6029 50.6147C51.1705 49.8735 50.3058 49.5647 49.1323 49.75Z" fill="white"/>
<path d="M35.9147 18.8676C35.7294 19.0529 35.6677 19.3 35.853 19.5471L36.9647 20.9676C37.15 21.1529 37.3971 21.2147 37.6441 21.0294C37.8294 20.8441 37.8912 20.5971 37.7059 20.35L36.5941 18.9294C36.4089 18.7441 36.1 18.6824 35.9147 18.8676Z" fill="white"/>
<path d="M38.7558 16.4588C38.5088 16.4588 38.3235 16.7059 38.3235 16.9529L38.6323 19.7324C38.6323 19.9794 38.8794 20.1647 39.0647 20.1647C39.3117 20.1647 39.5588 19.9176 39.497 19.6706L39.1882 16.8912C39.25 16.5824 39.0029 16.3971 38.7558 16.4588Z" fill="white"/>
<path d="M41.9058 18.4353L41.2882 20.2882C41.2264 20.5353 41.35 20.7823 41.597 20.8441C41.8441 20.9059 42.0911 20.7823 42.1529 20.5353L42.7706 18.6823C42.8323 18.4353 42.7088 18.1882 42.4617 18.1265C42.2764 18.0647 42.0294 18.25 41.9058 18.4353Z" fill="white"/>
</svg>
