<svg width="68" height="68" viewBox="0 0 68 68" fill="none" xmlns="http://www.w3.org/2000/svg">
<circle cx="34" cy="34" r="33.5" stroke="white"/>
<g clip-path="url(#clip0_26_217)">
<path d="M52.2692 22.3077H15.7308C15.3272 22.3077 15 22.6349 15 23.0385V44.9616C15 45.3651 15.3272 45.6924 15.7308 45.6924H52.2693C52.6728 45.6924 53.0001 45.3652 53.0001 44.9616V23.0385C53 22.6349 52.6727 22.3077 52.2692 22.3077ZM50.0769 31.0769C48.4651 31.0769 47.1539 32.3882 47.1539 34C47.1539 35.6118 48.4652 36.923 50.0769 36.923C50.6092 36.923 51.1082 36.7794 51.5385 36.5298V39.8461H49.3461C46.1226 39.8461 43.5 37.2235 43.5 34C43.5 30.7764 46.1226 28.1538 49.3461 28.1538H51.5385V31.4701C51.1082 31.2207 50.6091 31.0769 50.0769 31.0769ZM51.5385 34C51.5385 34.806 50.8829 35.4616 50.0769 35.4616C49.271 35.4616 48.6154 34.806 48.6154 34C48.6154 33.1942 49.271 32.5385 50.0769 32.5385C50.8828 32.5384 51.5385 33.1941 51.5385 34ZM34 35.4616C33.1941 35.4616 32.5385 34.806 32.5385 34C32.5385 33.1942 33.1941 32.5385 34 32.5385C34.8059 32.5385 35.4615 33.1942 35.4615 34C35.4615 34.8059 34.8059 35.4616 34 35.4616ZM17.9231 36.9231C19.5349 36.9231 20.8461 35.6118 20.8461 34C20.8461 32.3883 19.5349 31.077 17.9231 31.077C17.3908 31.077 16.8918 31.2207 16.4615 31.4702V28.1538H18.6539C21.8774 28.1538 24.5 30.7764 24.5 34C24.5 37.2235 21.8774 39.8461 18.6539 39.8461H16.4615V36.5299C16.8918 36.7794 17.3908 36.9231 17.9231 36.9231ZM16.4615 34C16.4615 33.1942 17.1172 32.5385 17.9231 32.5385C18.7289 32.5385 19.3846 33.1942 19.3846 34C19.3846 34.806 18.7289 35.4616 17.9231 35.4616C17.1172 35.4616 16.4615 34.8059 16.4615 34ZM16.4615 41.3077H18.6539C22.6834 41.3077 25.9615 38.0295 25.9615 34C25.9615 29.9705 22.6833 26.6924 18.6539 26.6924H16.4615V23.7692H33.3216V31.1572C32.036 31.464 31.0769 32.6217 31.0769 34C31.0769 35.3782 32.036 36.5359 33.3216 36.8427V44.2307H16.4615V41.3077ZM34.7831 44.2308V36.8157C36.0157 36.4723 36.9231 35.3405 36.9231 34C36.9231 32.6595 36.0157 31.5277 34.7831 31.1844V23.7692H51.5385V26.6923H49.3461C45.3166 26.6923 42.0385 29.9705 42.0385 34C42.0385 38.0295 45.3166 41.3076 49.3461 41.3076H51.5385V44.2307H34.7831V44.2308Z" fill="white"/>
</g>
<defs>
<clipPath id="clip0_26_217">
<rect width="38" height="38" fill="white" transform="translate(15 15)"/>
</clipPath>
</defs>
</svg>
