<svg width="68" height="69" viewBox="0 0 68 69" fill="none" xmlns="http://www.w3.org/2000/svg">
<circle cx="34" cy="34.22" r="33.5" stroke="#005155"/>
<g clip-path="url(#clip0_26_88)">
<path d="M25.6925 31.6287C25.3852 31.6287 25.1358 31.878 25.1358 32.1853V32.3091H25.0123C24.7047 32.3091 24.4557 32.5581 24.4557 32.8657C24.4557 33.173 24.7047 33.4224 25.0123 33.4224H25.1358V33.5459C25.1358 33.8532 25.3852 34.1025 25.6925 34.1025C26.0001 34.1025 26.2491 33.8532 26.2491 33.5459V33.4224H26.3726C26.6802 33.4224 26.9293 33.173 26.9293 32.8657C26.9293 32.5581 26.6802 32.3091 26.3726 32.3091H26.2491V32.1853C26.2491 31.878 26.0001 31.6287 25.6925 31.6287Z" fill="#21978B"/>
<path d="M32.6356 31.6287C32.328 31.6287 32.0789 31.878 32.0789 32.1853V32.3091H31.9554C31.6478 32.3091 31.3988 32.5581 31.3988 32.8657C31.3988 33.173 31.6478 33.4224 31.9554 33.4224H32.0789V33.5459C32.0789 33.8532 32.328 34.1025 32.6356 34.1025C32.9432 34.1025 33.1922 33.8532 33.1922 33.5459V33.4224H33.3157C33.6233 33.4224 33.8724 33.173 33.8724 32.8657C33.8724 32.5581 33.6233 32.3091 33.3157 32.3091H33.1922V32.1853C33.1922 31.878 32.9432 31.6287 32.6356 31.6287Z" fill="#21978B"/>
<path d="M25.0123 39.0102H25.1358V39.134C25.1358 39.4413 25.3852 39.6907 25.6925 39.6907C26.0001 39.6907 26.2491 39.4413 26.2491 39.134V39.0102H26.3726C26.6802 39.0102 26.9293 38.7612 26.9293 38.4536C26.9293 38.1463 26.6802 37.8969 26.3726 37.8969H26.2491V37.7734C26.2491 37.4658 26.0001 37.2168 25.6925 37.2168C25.3852 37.2168 25.1358 37.4658 25.1358 37.7734V37.8969H25.0123C24.7047 37.8969 24.4557 38.1463 24.4557 38.4536C24.4557 38.7612 24.705 39.0102 25.0123 39.0102Z" fill="#21978B"/>
<path d="M31.9554 39.0102H32.0789V39.134C32.0789 39.4413 32.328 39.6907 32.6356 39.6907C32.9432 39.6907 33.1922 39.4413 33.1922 39.134V39.0102H33.3157C33.6233 39.0102 33.8724 38.7612 33.8724 38.4536C33.8724 38.1463 33.6233 37.8969 33.3157 37.8969H33.1922V37.7734C33.1922 37.4658 32.9432 37.2168 32.6356 37.2168C32.328 37.2168 32.0789 37.4658 32.0789 37.7734V37.8969H31.9554C31.6478 37.8969 31.3988 38.1463 31.3988 38.4536C31.3988 38.7612 31.6478 39.0102 31.9554 39.0102Z" fill="#21978B"/>
<path d="M40.3306 42.9657C41.4465 42.7395 42.289 41.7512 42.289 40.5698C42.289 39.222 41.1926 38.1255 39.8444 38.1255H38.3131V31.0072C38.3131 29.3178 36.9389 27.9436 35.2498 27.9436H23.0785C21.3892 27.9436 20.015 29.3178 20.015 31.0072V33.0975C20.015 33.4051 20.2643 33.6541 20.5716 33.6541C20.8792 33.6541 21.1283 33.4051 21.1283 33.0975V31.0072C21.1283 29.9319 22.0032 29.0569 23.0785 29.0569H35.2498C36.3248 29.0569 37.1998 29.9319 37.1998 31.0072V38.1962C36.1831 38.4525 35.4281 39.3745 35.4281 40.4695V41.9602C35.0475 41.7132 34.5935 41.5697 34.1067 41.5697H24.2214C23.7346 41.5697 23.2806 41.7132 22.8999 41.9602V40.4695C22.8999 39.3745 22.145 38.4525 21.1283 38.1962V35.324C21.1283 35.0167 20.8792 34.7674 20.5716 34.7674C20.2643 34.7674 20.015 35.0167 20.015 35.324V38.1255H18.4834C17.1355 38.1255 16.0391 39.222 16.0391 40.5701C16.0391 41.7515 16.8816 42.7398 17.9975 42.9657V46.7647C17.9975 48.1073 19.0896 49.1997 20.4322 49.1997H20.9091L20.6021 52.0427C20.5345 52.67 21.0262 53.22 21.6591 53.22H22.5062C22.9687 53.22 23.3751 52.9246 23.5178 52.4845L24.5823 49.1994H33.7457L34.8103 52.4848C34.953 52.9246 35.3594 53.22 35.8218 53.22H36.669C37.2998 53.22 37.7939 52.6718 37.726 52.0427L37.419 49.1994H37.8959C39.2385 49.1994 40.3306 48.1073 40.3306 46.7647V42.9657ZM22.8999 44.0044C22.8999 43.2759 23.4928 42.6827 24.2214 42.6827H34.1067C34.8353 42.6827 35.4281 43.2756 35.4281 44.0044V45.0206H22.8999V44.0044ZM22.47 52.1067H21.7148L22.029 49.1994H23.4122L22.47 52.1067ZM35.8581 52.1067L34.9161 49.1994H36.299L36.6133 52.1067H35.8581ZM39.774 41.9008C39.4667 41.9008 39.2173 42.1501 39.2173 42.4574V46.7647C39.2173 47.4933 38.6248 48.0862 37.8959 48.0862H20.4322C19.7036 48.0862 19.1107 47.4936 19.1107 46.7647V42.4574C19.1107 42.1501 18.8614 41.9008 18.5541 41.9008H18.4834C17.7496 41.9008 17.1523 41.3038 17.1523 40.5698C17.1523 39.8357 17.7496 39.2388 18.4834 39.2388H20.5557C21.2344 39.2388 21.7867 39.7908 21.7867 40.4695V45.5769C21.7867 45.8845 22.0357 46.1336 22.3433 46.1336H35.9848C36.2924 46.1336 36.5414 45.8845 36.5414 45.5769V40.4695C36.5414 39.7908 37.0937 39.2388 37.7724 39.2388H39.8444C40.5785 39.2388 41.1757 39.8357 41.1757 40.5698C41.1757 41.3038 40.5785 41.9008 39.8444 41.9008H39.774Z" fill="#21978B"/>
<path d="M51.9107 23.4374L50.3504 19.9711C50.2243 19.6908 49.8947 19.5658 49.6146 19.6922C49.3343 19.8183 49.2093 20.1477 49.3354 20.428L50.8966 23.8963L50.8905 23.9021L39.2185 23.9024L39.2159 23.8946L42.6227 16.3333L47.4939 16.3364L48.4222 18.3989C48.5483 18.6793 48.8779 18.8042 49.158 18.6781C49.4383 18.5517 49.5633 18.2224 49.4372 17.942L48.5089 15.8795C48.3285 15.4789 47.9282 15.22 47.4886 15.22H42.6227C42.1832 15.22 41.7828 15.4789 41.6025 15.8795L38.2006 23.4374C37.8675 24.1781 38.4096 25.0154 39.2208 25.0154H42.8016V26.0368C42.8016 26.8111 43.4315 27.4408 44.2056 27.4408H44.499V46.7592H44.4535C43.7304 46.7592 43.1419 47.3477 43.1419 48.0708V49.3377H42.7842C41.4201 49.3377 40.3106 50.4472 40.3106 51.8113C40.3106 52.588 40.9426 53.22 41.7196 53.22H48.3917C49.1687 53.22 49.8007 52.588 49.8007 51.8113C49.8007 50.4472 48.6912 49.3377 47.3272 49.3377H46.9694V48.0708C46.9694 47.3474 46.3809 46.7592 45.6578 46.7592H45.6123V27.4408H45.9054C46.6798 27.4408 47.3098 26.8109 47.3098 26.0368V25.0154H50.8905C51.7026 25.0154 52.2436 24.177 51.9107 23.4374ZM47.3272 50.451C48.0772 50.451 48.6874 51.061 48.6874 51.811C48.6874 51.9742 48.555 52.1067 48.3917 52.1067H41.7196C41.5566 52.1067 41.4239 51.9742 41.4239 51.811C41.4239 51.061 42.0341 50.451 42.7842 50.451H47.3272ZM45.6578 47.8725C45.7671 47.8725 45.8561 47.9612 45.8561 48.0708V49.3377H44.2552V48.0708C44.2552 47.9612 44.3442 47.8725 44.4535 47.8725H45.6578ZM46.1965 26.0368C46.1965 26.1971 46.066 26.3276 45.9057 26.3276H44.2059C44.0456 26.3276 43.9151 26.1971 43.9151 26.0368V25.0154H46.1965V26.0368Z" fill="#21978B"/>
</g>
<defs>
<clipPath id="clip0_26_88">
<rect width="38" height="38" fill="white" transform="translate(15 15.22)"/>
</clipPath>
</defs>
</svg>
