<svg width="68" height="69" viewBox="0 0 68 69" fill="none" xmlns="http://www.w3.org/2000/svg">
<circle cx="34" cy="34.22" r="33.5" stroke="#005155"/>
<path fill-rule="evenodd" clip-rule="evenodd" d="M49.5748 37.132C49.5748 37.3398 49.4079 37.5086 49.1982 37.5086H46.9286C46.9144 37.5086 46.9 37.5086 46.8905 37.5096C46.011 37.5822 44.5406 38.087 44.6114 41.0087L44.8832 46.6143C41.3646 46.6367 38.6754 45.9702 36.506 44.5307L39.1475 37.8582C39.1522 37.8405 39.157 37.8224 39.1665 37.8042C39.381 37.0519 39.3858 36.2008 39.1761 35.2029C39.1713 35.1944 39.1713 35.1848 39.1665 35.1767L37.4882 28.6372C37.4358 28.4408 37.555 28.2361 37.7504 28.1813L37.8553 28.1522C38.0365 28.1007 38.2177 28.1856 38.2988 28.3592L40.4157 33.0336C40.7733 33.8231 41.2978 34.4835 41.9366 34.986C42.256 35.2697 42.6327 35.4938 43.038 35.6406C43.4718 35.8275 43.9391 35.9582 44.4254 36.0259L49.2504 36.6905C49.4364 36.7167 49.5746 36.8736 49.5746 37.0634V37.132H49.5748ZM45.3695 52.1231C45.4654 52.4695 45.0977 52.7747 44.7783 52.5966C44.683 52.5437 44.6114 52.4574 44.5828 52.3534L43.2335 47.762C43.5149 47.7786 43.8057 47.7901 44.0965 47.7963L45.3695 52.1231ZM38.6469 50.5836C38.6851 50.4796 38.6803 50.3681 38.6326 50.2703L37.5265 47.9307C37.4597 47.7939 37.4502 47.637 37.4979 47.4925L37.7983 46.5732C37.5455 46.4636 37.2929 46.3473 37.0498 46.2219L36.5443 47.7734L37.8889 50.6208C38.0451 50.9461 38.5191 50.9318 38.6469 50.5836ZM44.1728 30.2811C42.9713 30.2811 41.9891 31.2609 41.9891 32.4648C41.9891 33.1195 42.2799 33.7073 42.7376 34.1079C42.9617 34.2733 43.2001 34.413 43.4575 34.5279C43.6816 34.6057 43.9247 34.6481 44.1727 34.6481C45.379 34.6481 46.3564 33.6688 46.3564 32.4649C46.3565 31.2608 45.3791 30.2811 44.1728 30.2811ZM49.4127 35.5129L46.2946 35.0833C47.0574 34.4645 47.5485 33.5214 47.5485 32.4648C47.5485 30.6053 46.0324 29.0925 44.1729 29.0925C42.6901 29.0925 41.4266 30.057 40.9784 31.3906L39.3812 27.8676C39.057 27.1582 38.2798 26.7972 37.5313 27.0079L37.4264 27.037C36.6159 27.2664 36.1248 28.1165 36.3346 28.9331L38.0128 35.4589C38.1749 36.2342 38.1797 36.904 38.0272 37.4489L35.2284 44.5317C35.1283 44.7844 35.2142 45.0719 35.4334 45.2316C35.6193 45.3655 35.8053 45.4929 35.996 45.6163L35.338 47.6279C35.2904 47.7734 35.2998 47.9302 35.3666 48.067L36.8161 51.1294C37.4213 52.4104 39.2834 52.3251 39.7673 50.9835C39.9104 50.5802 39.8866 50.1468 39.7053 49.7615L38.6993 47.6369L38.9091 46.9933C39.8531 47.2989 40.8639 47.5173 41.9604 47.6493L43.4385 52.688C43.8424 54.0424 45.6904 54.2595 46.3755 53.0041C46.5805 52.6284 46.6282 52.1964 46.509 51.7874L45.3361 47.7953C45.5633 47.7918 45.7547 47.8016 45.9417 47.6022C46.0513 47.4844 46.1085 47.3285 46.099 47.1692L45.8034 40.96C45.7605 38.8178 46.633 38.7182 46.9477 38.6972H49.1981C50.061 38.6972 50.7619 37.9954 50.7619 37.1319V37.0633C50.762 36.2729 50.1946 35.6206 49.4127 35.5129ZM33.9648 24.8371C33.2926 25.0345 32.6012 25.0698 31.9432 24.9506C34.0347 23.8229 35.653 21.5811 36.177 19.1953C36.5347 19.1595 36.8875 19.0718 37.2307 18.9331C37.9308 21.4076 36.4783 24.1036 33.9648 24.8371ZM31.6667 19.687C30.818 21.154 30.4796 22.7999 30.718 24.2092C32.7596 23.4443 34.4117 21.3531 34.9708 19.1224C34.2136 18.9534 33.5181 18.5531 32.9922 17.9795C32.4867 18.4711 32.0338 19.0518 31.6667 19.687ZM29.4592 23.516C29.3889 21.1408 30.5261 18.6245 32.3247 16.973C32.1769 16.645 32.0768 16.2945 32.0291 15.9317C30.8372 16.2301 29.7453 17.0126 29.0683 18.1879C28.0873 19.891 28.2109 22.0468 29.4592 23.516ZM33.3164 15.8001C34.3381 15.8618 35.1604 16.1968 35.9388 16.8629C36.2506 17.1298 36.538 17.4921 36.7541 17.8432C36.0198 18.1335 35.1903 18.0787 34.4893 17.673C33.7885 17.2677 33.326 16.5778 33.2115 15.7977C33.2448 15.7987 33.283 15.7987 33.3164 15.8001ZM37.7839 23.2185C36.1925 25.9675 32.7293 27.0634 29.9837 25.4789C27.2415 23.8962 26.4524 20.3436 28.0384 17.5939C29.0236 15.8858 30.7554 14.8176 32.5297 14.6359C33.3852 14.5483 34.0032 14.6385 34.7849 14.8666C35.5625 15.0935 36.3896 15.6231 36.9638 16.1931V16.1964C37.4359 16.668 37.822 17.2253 38.0986 17.8513C38.1081 17.8718 38.1176 17.8923 38.1224 17.9137C38.828 19.5481 38.7613 21.5201 37.7839 23.2185ZM31.0755 30.0083L28.2911 36.3968C28.272 36.4392 28.2577 36.4846 28.2529 36.5303L27.3089 41.8884C27.2612 42.1602 27.4042 42.4291 27.6617 42.5383L30.4414 43.7316C30.6751 43.868 31.2519 44.2766 30.6703 46.0565L29.6977 49.218C29.5985 49.548 29.0999 49.4605 29.1113 49.1189L29.2304 45.5673C29.24 45.3241 29.1017 45.1005 28.8776 45.0032L26.6939 44.0435C26.4078 43.9181 26.0789 44.0339 25.931 44.3081L21.5685 52.4917C21.4053 52.799 20.8727 52.6036 20.9582 52.2633L22.9464 44.3692C22.956 44.3277 22.9655 44.2853 22.9655 44.2424L23.0465 41.53C23.0465 41.5175 23.0465 41.5042 23.0465 41.4913C23.0084 40.3666 22.4219 39.291 21.2586 38.2054L18.5171 35.5235C18.272 35.2849 18.5697 34.883 18.8699 35.0496L21.9262 36.7503C22.8129 37.2423 23.819 37.3291 24.8393 37.0015C25.2446 36.8733 25.6308 36.6868 25.9931 36.4619C26.4318 36.2473 26.8227 35.9398 27.1278 35.5646C27.7953 34.9162 28.3246 34.1633 28.6488 33.4763L30.3891 29.7006C30.5978 29.2458 31.274 29.5659 31.0755 30.0083ZM24.5244 31.2418C23.3182 31.2418 22.3407 32.2216 22.3407 33.4255C22.3407 34.6299 23.3181 35.6087 24.5244 35.6087C24.8438 35.6087 25.149 35.5381 25.4256 35.4122C25.7164 35.2254 25.9929 35.0046 26.2456 34.7652C26.5365 34.3952 26.7081 33.9303 26.7081 33.4254C26.7081 32.2216 25.7259 31.2418 24.5244 31.2418ZM31.2329 28.3782L31.2185 28.3739C30.4652 28.1212 29.6404 28.4778 29.3066 29.203L27.7761 32.5328C27.3804 31.1054 26.074 30.0526 24.5244 30.0526C21.8631 30.0526 20.2354 33.0121 21.6971 35.2615L19.4467 34.0099C18.7702 33.6337 17.9684 33.8246 17.4966 34.4752C17.0914 35.0707 17.1676 35.8688 17.6873 36.3738L20.4432 39.0691C21.3634 39.9248 21.8259 40.725 21.8593 41.515L21.7782 44.1416L19.8044 51.9723C19.6089 52.7566 20.0619 53.5424 20.8438 53.7607C21.0189 53.8114 21.1352 53.837 21.3205 53.837C21.8545 53.837 22.3552 53.5462 22.6221 53.0508L26.7225 45.3536L28.0289 45.929L27.9192 49.0777C27.8945 49.8081 28.3925 50.4354 29.1207 50.5834C29.874 50.7398 30.6131 50.3022 30.8372 49.5664L31.8003 46.4211C32.5536 44.1272 31.7765 43.1212 30.9993 42.6806C30.9802 42.6706 30.9611 42.6611 30.9421 42.652L28.5629 41.6307L29.4116 36.8061L32.1674 30.483C32.5362 29.6398 32.101 28.667 31.2329 28.3782Z" fill="#21978B"/>
</svg>
