<svg width="68" height="69" viewBox="0 0 68 69" fill="none" xmlns="http://www.w3.org/2000/svg">
<circle cx="34" cy="34.22" r="33.5" stroke="#005155"/>
<g clip-path="url(#clip0_26_101)">
<path d="M52.8925 34.2116H18.6062V18.8178C18.6062 16.4991 20.4859 14.6194 22.8045 14.6194H24.204V17.4883C22.5749 17.8209 21.4048 19.2542 21.4051 20.9169C21.4051 21.3034 21.7184 21.6166 22.1048 21.6166H27.7026C28.0891 21.6166 28.4023 21.3034 28.4023 20.9169C28.4026 19.2542 27.2326 17.8208 25.6035 17.4883V13.9197C25.6035 13.5332 25.2901 13.22 24.9038 13.22H22.8046C19.7129 13.22 17.2067 15.7262 17.2067 18.8178V34.2116H15.1076C13.9483 34.2116 13.0084 35.1514 13.0084 36.3107C13.0084 37.47 13.9482 38.4099 15.1076 38.4099C15.2965 43.5039 17.4796 48.9057 20.7474 50.508C19.6908 51.6364 19.7491 53.4076 20.8774 54.4641C22.0058 55.5207 23.7769 55.4624 24.8335 54.3341C25.681 53.429 25.8319 52.0743 25.2045 51.0048H42.7885C42.537 51.4287 42.4018 51.9114 42.3967 52.4043C42.3875 53.9501 43.6331 55.2105 45.1789 55.2197C46.7246 55.2289 47.9851 53.9833 47.9943 52.4375C47.9985 51.7214 47.7281 51.0309 47.2387 50.5081C50.5064 48.9058 52.6895 43.5039 52.8924 38.41C54.0517 38.41 54.9915 37.4701 54.9915 36.3108C54.9916 35.1514 54.0518 34.2116 52.8925 34.2116ZM25.6003 18.9335C26.2006 19.1447 26.6727 19.6168 26.8839 20.2171H22.9235C23.3082 19.1235 24.5066 18.5488 25.6003 18.9335ZM36.0992 35.611H45.8953V43.308H36.0992V35.611ZM14.4079 36.3107C14.4079 35.9243 14.7211 35.611 15.1076 35.611H34.6997V37.0105H15.1076C14.7211 37.0104 14.4079 36.6972 14.4079 36.3107ZM22.8045 53.8037C22.0316 53.8037 21.4051 53.1771 21.4051 52.4042C21.4051 51.6313 22.0316 51.0048 22.8045 51.0048C23.5774 51.0048 24.204 51.6313 24.204 52.4042C24.204 53.1771 23.5774 53.8037 22.8045 53.8037ZM45.1956 53.8037C44.4227 53.8037 43.7961 53.1771 43.7961 52.4042C43.7961 51.6313 44.4227 51.0048 45.1956 51.0048C45.9685 51.0048 46.5951 51.6313 46.5951 52.4042C46.5951 53.1771 45.9684 53.8037 45.1956 53.8037ZM45.1956 49.6054H22.8045C19.6908 49.6054 16.752 44.2595 16.507 38.4099H34.6998V45.4071C34.6998 45.7935 35.0131 46.1067 35.3995 46.1067C35.7859 46.1067 36.0992 45.7934 36.0992 45.4071V44.7074H37.4986V45.4071C37.4986 45.7935 37.8119 46.1067 38.1983 46.1067C38.5848 46.1067 38.898 45.7934 38.898 45.4071V44.7074H40.2975V45.4071C40.2975 45.7935 40.6108 46.1067 40.9972 46.1067C41.3836 46.1067 41.6969 45.7934 41.6969 45.4071V44.7074H43.0963V45.4071C43.0963 45.7935 43.4096 46.1067 43.796 46.1067C44.1825 46.1067 44.4957 45.7934 44.4957 45.4071V44.7074H45.8952V45.4071C45.8952 45.7935 46.2084 46.1067 46.5949 46.1067C46.9813 46.1067 47.2946 45.7934 47.2946 45.4071V38.4099H51.4929C51.2481 44.2596 48.3093 49.6054 45.1956 49.6054ZM52.8925 37.0104H47.2947V35.611H52.8925C53.2789 35.611 53.5921 35.9243 53.5921 36.3106C53.5921 36.697 53.2789 37.0104 52.8925 37.0104Z" fill="#21978B"/>
<path d="M25.6034 23.7158C25.6034 23.3293 25.29 23.0161 24.9037 23.0161C24.5173 23.0161 24.204 23.3293 24.204 23.7158V24.4155C24.204 24.802 24.5172 25.1152 24.9037 25.1152C25.2901 25.1152 25.6034 24.802 25.6034 24.4155V23.7158Z" fill="#21978B"/>
<path d="M25.6034 27.2143C25.6034 26.8279 25.29 26.5146 24.9037 26.5146C24.5173 26.5146 24.204 26.8279 24.204 27.2143V27.914C24.204 28.3005 24.5172 28.6137 24.9037 28.6137C25.2901 28.6137 25.6034 28.3005 25.6034 27.914V27.2143Z" fill="#21978B"/>
<path d="M24.9037 30.0133C24.5172 30.0133 24.204 30.3266 24.204 30.713V31.4127C24.204 31.7991 24.5172 32.1124 24.9037 32.1124C25.2901 32.1124 25.6034 31.7991 25.6034 31.4127V30.713C25.6034 30.3266 25.2901 30.0133 24.9037 30.0133Z" fill="#21978B"/>
<path d="M28.4023 23.7158C28.4023 23.3293 28.0891 23.0161 27.7026 23.0161C27.3162 23.0161 27.0029 23.3293 27.0029 23.7158V24.4155C27.0029 24.802 27.3162 25.1152 27.7026 25.1152C28.0891 25.1152 28.4023 24.802 28.4023 24.4155V23.7158Z" fill="#21978B"/>
<path d="M28.4023 27.2143C28.4023 26.8279 28.0891 26.5146 27.7026 26.5146C27.3162 26.5146 27.0029 26.8279 27.0029 27.2143V27.914C27.0029 28.3005 27.3162 28.6137 27.7026 28.6137C28.0891 28.6137 28.4023 28.3005 28.4023 27.914V27.2143Z" fill="#21978B"/>
<path d="M27.7025 30.0133C27.316 30.0133 27.0028 30.3266 27.0028 30.713V31.4127C27.0028 31.7991 27.316 32.1124 27.7025 32.1124C28.089 32.1124 28.4022 31.7991 28.4022 31.4127V30.713C28.4023 30.3266 28.089 30.0133 27.7025 30.0133Z" fill="#21978B"/>
<path d="M22.8045 23.7158C22.8045 23.3293 22.4913 23.0161 22.1048 23.0161C21.7184 23.0161 21.4052 23.3293 21.4052 23.7158V24.4155C21.4052 24.802 21.7184 25.1152 22.1048 25.1152C22.4913 25.1152 22.8045 24.802 22.8045 24.4155V23.7158Z" fill="#21978B"/>
<path d="M22.8045 27.2143C22.8045 26.8279 22.4913 26.5146 22.1048 26.5146C21.7184 26.5146 21.4052 26.8279 21.4052 27.2143V27.914C21.4052 28.3005 21.7184 28.6137 22.1048 28.6137C22.4913 28.6137 22.8045 28.3005 22.8045 27.914V27.2143Z" fill="#21978B"/>
<path d="M22.1048 30.0133C21.7184 30.0133 21.4052 30.3266 21.4052 30.713V31.4127C21.4052 31.7991 21.7184 32.1124 22.1048 32.1124C22.4913 32.1124 22.8045 31.7991 22.8045 31.4127V30.713C22.8045 30.3266 22.4912 30.0133 22.1048 30.0133Z" fill="#21978B"/>
</g>
<defs>
<clipPath id="clip0_26_101">
<rect width="42" height="42" fill="white" transform="translate(13 13.22)"/>
</clipPath>
</defs>
</svg>
