<svg width="68" height="69" viewBox="0 0 68 69" fill="none" xmlns="http://www.w3.org/2000/svg">
<circle cx="34" cy="34.22" r="33.5" stroke="#005155"/>
<path d="M55.407 43.1032V30.0871C55.407 29.9622 55.3573 29.8424 55.269 29.754C55.1806 29.6657 55.0608 29.616 54.9359 29.616H49.2311V25.8907H51.2809C51.3513 25.8907 51.4208 25.8749 51.4843 25.8445C51.5478 25.814 51.6037 25.7697 51.6478 25.7149C51.6919 25.66 51.7232 25.596 51.7393 25.5274C51.7554 25.4589 51.756 25.3876 51.7409 25.3188L50.6843 20.4992C50.6097 20.1666 50.4245 19.8691 50.1589 19.6555C49.8934 19.4418 49.5631 19.3246 49.2223 19.323H46.3155C45.9746 19.3246 45.6445 19.4418 45.3789 19.6555C45.1133 19.8691 44.9281 20.1665 44.8535 20.4991L43.7968 25.3188C43.7818 25.3876 43.7823 25.4589 43.7984 25.5274C43.8145 25.596 43.8458 25.66 43.8899 25.7149C43.9341 25.7697 43.9899 25.814 44.0534 25.8445C44.1169 25.8749 44.1864 25.8907 44.2568 25.8907H46.3068V29.616H43.163C43.038 29.616 42.9182 29.6657 42.8299 29.754C42.7415 29.8424 42.6919 29.9622 42.6919 30.0871C42.6919 30.2121 42.7415 30.3319 42.8299 30.4202C42.9182 30.5086 43.038 30.5582 43.163 30.5582H54.4648V34.5878H47.7691C47.6441 34.5878 47.5243 34.6375 47.436 34.7258C47.3476 34.8142 47.298 34.934 47.298 35.0589C47.298 35.1839 47.3476 35.3037 47.436 35.392C47.5243 35.4804 47.6441 35.53 47.7691 35.53H54.4648V39.5596H48.6582C48.5957 39.5586 48.5336 39.57 48.4755 39.5932C48.4174 39.6163 48.3646 39.6509 48.32 39.6947C48.2754 39.7386 48.24 39.7908 48.2158 39.8485C48.1916 39.9062 48.1792 39.9681 48.1792 40.0306C48.1792 40.0932 48.1916 40.1551 48.2158 40.2128C48.24 40.2704 48.2754 40.3227 48.32 40.3666C48.3646 40.4104 48.4174 40.4449 48.4755 40.4681C48.5336 40.4913 48.5957 40.5027 48.6582 40.5017H50.993C51.0315 40.5249 51.0731 40.5425 51.1167 40.5538C53.1434 41.0496 52.9876 42.9755 52.9803 43.0551C52.9736 43.1207 52.9807 43.1869 53.0011 43.2496C53.0216 43.3123 53.055 43.3699 53.0991 43.4189C53.1433 43.4678 53.1973 43.5069 53.2575 43.5337C53.3177 43.5605 53.3829 43.5743 53.4489 43.5743H54.9356C54.9975 43.5744 55.0588 43.5622 55.116 43.5386C55.1732 43.5149 55.2251 43.4802 55.2689 43.4365C55.3127 43.3927 55.3474 43.3408 55.3711 43.2836C55.3948 43.2264 55.407 43.1651 55.407 43.1032ZM45.774 20.701C45.8016 20.5778 45.8702 20.4676 45.9685 20.3885C46.0668 20.3093 46.189 20.2658 46.3152 20.2651H49.2223C49.3485 20.2658 49.4707 20.3093 49.569 20.3885C49.6673 20.4676 49.7358 20.5778 49.7634 20.701L50.6945 24.9485H44.8425L45.774 20.701ZM47.2487 25.8907H48.2887V29.616H47.2487V25.8907ZM53.9221 42.6321C53.8693 41.8292 53.5279 41.0725 52.9609 40.5017H54.4648V42.6321H53.9221Z" fill="#21978B"/>
<path d="M13.0642 49.1169H14.9854C15.1018 49.1167 15.2141 49.0735 15.3006 48.9955C15.3871 48.9174 15.4417 48.8102 15.4539 48.6944C15.4685 48.5557 15.8439 45.2906 18.6794 44.6422C18.6949 44.6386 18.7087 44.6323 18.7233 44.6274H40.8436C40.8571 44.6316 40.8689 44.6374 40.8825 44.6409C43.7247 45.2858 44.1008 48.5559 44.1153 48.6939C44.127 48.8101 44.1815 48.9177 44.2681 48.9959C44.3547 49.0741 44.4672 49.1174 44.5839 49.1174H46.5051C46.567 49.1174 46.6282 49.1053 46.6854 49.0816C46.7425 49.0579 46.7945 49.0233 46.8382 48.9795C46.8819 48.9358 46.9167 48.8839 46.9403 48.8267C46.964 48.7696 46.9762 48.7083 46.9762 48.6465V44.1563V38.314C46.9751 37.3648 46.6225 36.4496 45.9864 35.7451C44.4245 34.0072 42.2827 32.6087 41.1871 31.9518C41.3608 31.7885 41.4992 31.5914 41.5939 31.3725C41.6885 31.1537 41.7374 30.9178 41.7375 30.6794C41.7374 30.249 41.6479 29.8233 41.4747 29.4293C41.3015 29.0352 41.0483 28.6815 40.7311 28.3905V25.7793C40.7304 25.074 40.4498 24.3977 39.9511 23.899C39.4523 23.4002 38.7761 23.1197 38.0707 23.1189H21.4988C20.7935 23.1197 20.1173 23.4003 19.6186 23.899C19.1198 24.3978 18.8393 25.074 18.8385 25.7793V28.3905C18.5214 28.6815 18.2682 29.0352 18.095 29.4293C17.9218 29.8233 17.8324 30.249 17.8324 30.6794C17.8324 30.9178 17.8813 31.1537 17.976 31.3725C18.0706 31.5914 18.209 31.7885 18.3827 31.9518C17.2868 32.6087 15.1453 34.0072 13.5834 35.7451C12.9474 36.4496 12.5947 37.3648 12.5936 38.314V44.1562V48.6458C12.5936 48.7706 12.6431 48.8904 12.7314 48.9787C12.8196 49.0671 12.9393 49.1168 13.0642 49.1169ZM46.0345 43.6852H13.5353V40.6366H46.0345V43.6852ZM14.5845 48.1748H13.5353V44.6274H16.5825C15.217 45.7244 14.7389 47.3947 14.5845 48.1748ZM44.9851 48.1748C44.8308 47.3947 44.3527 45.7244 42.9872 44.6274H46.0343V48.1748H44.9851ZM39.9841 31.4913H30.2564V30.8139C30.2465 30.165 30.4865 29.5371 30.9267 29.0602C31.367 28.5834 31.9738 28.2942 32.6215 28.2525C32.671 28.2499 32.7212 28.2486 32.7723 28.2486H36.8593H36.8792C36.8949 28.2478 38.4215 28.1907 39.5986 28.7501C39.9595 28.9266 40.2632 29.2013 40.4751 29.5426C40.6869 29.8839 40.7982 30.278 40.7962 30.6797C40.7959 30.8949 40.7102 31.1013 40.558 31.2534C40.4057 31.4056 40.1993 31.4911 39.9841 31.4913ZM21.4988 24.0616H38.0713C38.5268 24.0621 38.9636 24.2433 39.2857 24.5654C39.6078 24.8876 39.789 25.3243 39.7895 25.7799V27.8047C38.4907 27.2647 37.005 27.3012 36.85 27.3065H32.7719C32.7046 27.3065 32.6386 27.3082 32.5739 27.3115C32.0015 27.3418 31.4459 27.5158 30.9585 27.8175C30.4711 28.1191 30.0675 28.5386 29.7849 29.0373C29.5024 28.5386 29.0989 28.1191 28.6115 27.8175C28.1242 27.5159 27.5687 27.3419 26.9964 27.3115C26.9313 27.3081 26.8652 27.3064 26.7979 27.3065H22.72C22.5652 27.3012 21.0793 27.2646 19.7803 27.8047V25.7799C19.7808 25.3243 19.962 24.8875 20.2842 24.5653C20.6064 24.2432 21.0432 24.0621 21.4988 24.0616ZM19.9718 28.7498C20.9467 28.2863 22.1725 28.2465 22.5645 28.2465C22.6435 28.2465 22.6886 28.2482 22.6912 28.2483H22.7109H26.7979C26.849 28.2483 26.8994 28.2496 26.949 28.2522C27.5966 28.294 28.2034 28.5832 28.6436 29.06C29.0838 29.5368 29.3238 30.1647 29.3138 30.8136V31.491H19.5862C19.371 31.4907 19.1647 31.4051 19.0125 31.253C18.8603 31.1008 18.7747 30.8945 18.7744 30.6793C18.7724 30.2776 18.8837 29.8835 19.0955 29.5423C19.3072 29.201 19.611 28.9263 19.9718 28.7498ZM14.2836 36.3749C16.1206 34.3309 18.9134 32.7219 19.4436 32.4262C19.4907 32.43 19.5383 32.4334 19.5859 32.4334H39.9841C40.0321 32.4334 40.0788 32.43 40.1264 32.4262C40.6566 32.7221 43.4493 34.3309 45.2862 36.3749C45.7668 36.9066 46.0334 37.5974 46.0345 38.314V39.694H13.5353V38.314C13.5366 37.5974 13.8031 36.9066 14.2836 36.3749Z" fill="#21978B"/>
<path d="M48.9143 32.9318C49.1745 32.9318 49.3854 32.7209 49.3854 32.4607C49.3854 32.2005 49.1745 31.9896 48.9143 31.9896C48.6542 31.9896 48.4432 32.2005 48.4432 32.4607C48.4432 32.7209 48.6542 32.9318 48.9143 32.9318Z" fill="#21978B"/>
<path d="M48.9143 38.1281C49.1745 38.1281 49.3854 37.9172 49.3854 37.657C49.3854 37.3968 49.1745 37.1859 48.9143 37.1859C48.6542 37.1859 48.4432 37.3968 48.4432 37.657C48.4432 37.9172 48.6542 38.1281 48.9143 38.1281Z" fill="#21978B"/>
</svg>
