<svg width="70" height="70" viewBox="0 0 70 70" fill="none" xmlns="http://www.w3.org/2000/svg">
<path fill-rule="evenodd" clip-rule="evenodd" d="M8.8728 54.4228C9.38744 54.3503 9.91342 54.3503 10.4279 54.4228C10.4642 54.428 10.4975 54.418 10.5252 54.3941C10.5529 54.37 10.5672 54.3385 10.5672 54.3018V10.137C10.5672 10.0824 10.6015 10.0361 10.6537 10.0201C10.706 10.0041 10.7603 10.0235 10.7908 10.0687L12.2702 12.2644C12.553 12.6837 13.1222 12.7943 13.5417 12.5115C13.961 12.2287 14.0716 11.6595 13.7888 11.2401L10.4356 6.26321C10.4351 6.26237 10.4346 6.26167 10.4341 6.26097C10.0559 5.67171 9.24492 5.67101 8.86622 6.26167C8.86566 6.26251 8.86524 6.26321 8.86468 6.26405L5.51224 11.2402C5.22944 11.6595 5.34004 12.2287 5.75934 12.5117C6.17864 12.7945 6.74788 12.6839 7.03082 12.2646L8.51006 10.0688C8.54058 10.0235 8.5949 10.0043 8.64712 10.0202C8.69934 10.0362 8.73364 10.0825 8.73364 10.1371V54.3017C8.73364 54.3384 8.74806 54.3699 8.77564 54.394C8.80336 54.418 8.83654 54.4278 8.8728 54.4228ZM56.1343 51.7132C56.1343 51.2069 55.7238 50.7964 55.2174 50.7964C54.711 50.7964 54.3006 51.2069 54.3006 51.7132V54.7717C54.3006 55.278 54.711 55.6885 55.2174 55.6885C55.7238 55.6885 56.1343 55.278 56.1343 54.7717V51.7132ZM56.1343 44.81C56.1343 44.3036 55.7238 43.8931 55.2174 43.8931C54.711 43.8931 54.3006 44.3036 54.3006 44.81V47.8684C54.3006 48.3748 54.711 48.7853 55.2174 48.7853C55.7238 48.7853 56.1343 48.3748 56.1343 47.8684V44.81ZM55.2174 36.9898C54.711 36.9898 54.3006 37.4003 54.3006 37.9067V40.9651C54.3006 41.4715 54.711 41.882 55.2174 41.882C55.7238 41.882 56.1343 41.4715 56.1343 40.9651V37.9067C56.1343 37.4003 55.7238 36.9898 55.2174 36.9898ZM55.2174 30.0864C54.711 30.0864 54.3006 30.4969 54.3006 31.0033V34.0617C54.3006 34.5681 54.711 34.9786 55.2174 34.9786C55.7238 34.9786 56.1343 34.5681 56.1343 34.0617V31.0033C56.1343 30.4971 55.7238 30.0864 55.2174 30.0864ZM55.2174 23.1832C54.711 23.1832 54.3006 23.5937 54.3006 24.1V27.1585C54.3006 27.6649 54.711 28.0753 55.2174 28.0753C55.7238 28.0753 56.1343 27.6649 56.1343 27.1585V24.1C56.1343 23.5937 55.7238 23.1832 55.2174 23.1832ZM54.3006 17.1966V20.2551C54.3006 20.7615 54.711 21.1719 55.2174 21.1719C55.7238 21.1719 56.1343 20.7615 56.1343 20.2551V17.1966C56.1343 16.6903 55.7238 16.2798 55.2174 16.2798C54.711 16.2798 54.3006 16.6904 54.3006 17.1966ZM17.8244 15.2372H14.766C14.2596 15.2372 13.8491 14.8267 13.8491 14.3203C13.8491 13.814 14.2596 13.4035 14.766 13.4035H17.8244C18.3308 13.4035 18.7413 13.814 18.7413 14.3203C18.7413 14.8267 18.3308 15.2372 17.8244 15.2372ZM25.6447 14.3203C25.6447 13.814 25.2342 13.4035 24.7278 13.4035H21.6694C21.163 13.4035 20.7525 13.814 20.7525 14.3203C20.7525 14.8267 21.163 15.2372 21.6694 15.2372H24.7278C25.234 15.2372 25.6447 14.8267 25.6447 14.3203ZM32.5479 14.3203C32.5479 13.814 32.1374 13.4035 31.6311 13.4035H28.5726C28.0662 13.4035 27.6558 13.814 27.6558 14.3203C27.6558 14.8267 28.0662 15.2372 28.5726 15.2372H31.6311C32.1374 15.2372 32.5479 14.8267 32.5479 14.3203ZM39.4512 14.3203C39.4512 13.814 39.0407 13.4035 38.5343 13.4035H35.476C34.9696 13.4035 34.5592 13.814 34.5592 14.3203C34.5592 14.8267 34.9696 15.2372 35.476 15.2372H38.5345C39.0407 15.2372 39.4512 14.8267 39.4512 14.3203ZM45.4377 15.2372C45.9441 15.2372 46.3546 14.8267 46.3546 14.3203C46.3546 13.814 45.9441 13.4035 45.4377 13.4035H42.3793C41.8729 13.4035 41.4624 13.814 41.4624 14.3203C41.4624 14.8267 41.8729 15.2372 42.3793 15.2372H45.4377ZM48.3657 14.3203C48.3657 14.8267 48.7762 15.2372 49.2825 15.2372H52.341C52.8474 15.2372 53.2578 14.8267 53.2578 14.3203C53.2578 13.814 52.8474 13.4035 52.341 13.4035H49.2825C48.7763 13.4035 48.3657 13.814 48.3657 14.3203ZM39.1348 22.9788L46.5593 30.4033C46.9172 30.7612 47.4977 30.7612 47.8558 30.4033C48.2138 30.0453 48.2138 29.4648 47.8558 29.1069L40.4313 21.6824C40.0733 21.3244 39.4929 21.3244 39.1349 21.6824C38.7768 22.0402 38.7768 22.6208 39.1348 22.9788ZM28.0737 22.9788C27.7157 22.6208 27.7157 22.0404 28.0737 21.6822C28.4316 21.3243 29.0121 21.3243 29.3701 21.6822L47.8557 40.1678C48.2136 40.5258 48.2136 41.1063 47.8557 41.4642C47.4977 41.8222 46.9172 41.8222 46.5591 41.4642L28.0737 22.9788ZM17.0124 22.9788C16.6544 22.6208 16.6544 22.0404 17.0124 21.6822C17.3704 21.3243 17.9508 21.3243 18.3088 21.6822L47.8557 51.2291C48.2136 51.5871 48.2136 52.1675 47.8557 52.5255C47.4977 52.8835 46.9172 52.8835 46.5591 52.5255L17.0124 22.9788ZM17.0124 34.0399L35.498 52.5255C35.856 52.8835 36.4364 52.8835 36.7945 52.5255C37.1527 52.1675 37.1525 51.5871 36.7945 51.2291L18.3089 32.7435C17.951 32.3855 17.3705 32.3855 17.0125 32.7435C16.6544 33.1013 16.6544 33.6819 17.0124 34.0399ZM17.0124 45.101L24.4369 52.5255C24.7949 52.8835 25.3753 52.8835 25.7334 52.5255C26.0914 52.1675 26.0914 51.5871 25.7334 51.2291L18.3089 43.8046C17.951 43.4467 17.3705 43.4467 17.0125 43.8046C16.6546 44.1626 16.6544 44.743 17.0124 45.101ZM15.115 59.1099C15.1098 59.0736 15.1197 59.0403 15.1438 59.0126C15.1678 58.9848 15.1994 58.9705 15.2361 58.9705H60.2783C60.333 58.9705 60.3795 58.936 60.3953 58.8835C60.4111 58.831 60.3914 58.7766 60.3458 58.7464L58.1181 57.2712C57.6968 56.9923 57.5813 56.4246 57.8602 56.0034C58.1391 55.5821 58.7068 55.4666 59.128 55.7455L64.1774 59.0891C64.1785 59.0898 64.1795 59.0905 64.1806 59.0912C64.7992 59.4733 64.7992 60.3014 64.1806 60.6834C64.1795 60.6842 64.1785 60.6847 64.1774 60.6855L59.128 64.0292C58.7068 64.3081 58.1391 64.1926 57.8602 63.7713C57.5813 63.35 57.6968 62.7823 58.1181 62.5034L60.3458 61.0283C60.3914 60.998 60.4111 60.9436 60.3953 60.8912C60.3795 60.8387 60.333 60.8041 60.2783 60.8041H15.2361C15.1994 60.8041 15.1679 60.7897 15.1438 60.7621C15.1197 60.7344 15.1099 60.7012 15.1151 60.6648C15.1876 60.1502 15.1876 59.6246 15.115 59.1099ZM5.965 59.8874C5.965 61.9229 7.61476 63.5728 9.65036 63.5728C11.686 63.5728 13.3357 61.923 13.3357 59.8874C13.3357 57.8518 11.686 56.202 9.65036 56.202C7.6149 56.202 5.965 57.8518 5.965 59.8874Z" fill="#005155"/>
</svg>
